<?xml version="1.0" encoding="UTF-8"?>
<svg id="Layer_1" data-name="Layer 1" xmlns="http://www.w3.org/2000/svg" viewBox="0 0 1024 768">
  <defs>
    <style>
      .cls-1 {
        fill: none;
        stroke: #000;
        stroke-miterlimit: 10;
        stroke-width: 2px;
      }
    </style>
  </defs>
  <path class="cls-1" d="M179.2,327.6c8.13-8,17.8-14.2,29-18.6,11.2-4.4,23.46-6.6,36.8-6.6,14.4,0,27.6,2.6,39.6,7.8,12,5.2,23.2,13.27,33.6,24.2l41.2-38.4c-13.6-15.73-30.34-27.73-50.2-36-19.87-8.26-42.2-12.4-67-12.4-22.4,0-42.94,3.54-61.6,10.6-18.67,7.07-34.94,17.14-48.8,30.2-13.87,13.07-24.6,28.4-32.2,46s-11.4,36.94-11.4,58,3.8,40.4,11.4,58,18.2,32.94,31.8,46c13.6,13.07,29.73,23.14,48.4,30.2,18.66,7.06,39.06,10.6,61.2,10.6,20,0,40-3,60-9s37.73-14.86,53.2-26.6v-113.6h-59.2v82.28c-4.29,2.27-8.62,4.18-13,5.71-12.14,4.27-24.6,6.4-37.4,6.4s-25.54-2.26-36.6-6.8c-11.07-4.53-20.67-10.8-28.8-18.8-8.14-8-14.4-17.53-18.8-28.6-4.4-11.06-6.6-23-6.6-35.8s2.2-25.46,6.6-36.4c4.4-10.93,10.66-20.4,18.8-28.4Z"/>
  <polygon class="cls-1" points="382.6 305.2 472.2 305.2 472.2 532.4 537 532.4 537 305.2 626.6 305.2 626.6 252.4 382.6 252.4 382.6 305.2"/>
  <polygon class="cls-1" points="853.4 252.4 853.4 362.8 726.6 362.8 726.6 252.4 661.4 252.4 661.4 532.4 726.6 532.4 726.6 417.6 853.4 417.6 853.4 532.4 918.2 532.4 918.2 252.4 853.4 252.4"/>
</svg>