<svg id="Layer_1" data-name="Layer 1" xmlns="http://www.w3.org/2000/svg" viewBox="0 0 100 100" width="64" height="64">
  <defs>
    <style>
      .cls-1 {
        fill: #f10003;
      }
      .cls-1, .cls-2 {
        stroke-width: 0px;
      }
      .cls-2 {
        fill: #fff;
      }
    </style>
  </defs>
  <rect class="cls-1" width="100" height="100" rx="7.54" ry="7.54"/>
  <path class="cls-2" d="M17.61,32.5h5.62v27.22c0,2.37-.76,4.32-2.29,5.91-1.51,1.59-3.52,2.37-6.01,2.37s-4.57-.78-6.08-2.37-2.27-3.56-2.27-5.98v-27.15h5.59v27.42c0,1.73,1,2.83,2.76,2.83,1.66,0,2.69-1.1,2.69-2.83v-27.42Z"/>
  <polygon class="cls-2" points="26.97 67.5 26.97 32.5 32.92 32.5 36.07 44.36 38.22 52.76 38.37 52.76 38.37 32.5 43.96 32.5 43.96 67.5 38.17 67.5 34.61 54.44 32.7 46.61 32.56 46.61 32.56 67.5 26.97 67.5"/>
  <rect class="cls-2" x="47.96" y="32.5" width="5.59" height="35.01"/>
  <path class="cls-2" d="M71.42,34.38c-1.51-1.59-3.52-2.37-6.03-2.37s-4.54.81-6.08,2.39c-1.51,1.59-2.27,3.56-2.27,5.96v19.29c0,2.42.76,4.39,2.27,5.98s3.54,2.37,6.08,2.37,4.52-.78,6.03-2.37,2.27-3.54,2.27-5.91v-19.41c0-2.37-.76-4.35-2.27-5.93ZM68.1,59.91c0,1.73-1.05,2.83-2.71,2.83s-2.73-1.1-2.73-2.83v-20c0-1.73,1-2.86,2.73-2.86s2.71,1.12,2.71,2.86v20Z"/>
  <path class="cls-2" d="M89.83,51.25c2.03-.98,3.25-3.05,3.25-5.4v-7.2c0-1.68-.61-3.15-1.81-4.35s-2.66-1.81-4.35-1.81h-9.74v35.01h5.59v-15.5h1.71l3.64,15.5h5.81l-4.1-16.26ZM87.73,44.46c0,1.59-.9,2.54-2.29,2.54h-2.66v-9.5h2.76c1.34,0,2.2,1.03,2.2,2.56v4.39Z"/>
</svg>