<?xml version="1.0" encoding="UTF-8"?>
<svg id="Capa_3" data-name="Capa 3" xmlns="http://www.w3.org/2000/svg" xmlns:xlink="http://www.w3.org/1999/xlink" viewBox="0 0 587 406.59">
  <defs>
    <style>
      .cls-1 {
        fill: url(#Degradado_sin_nombre_71);
      }

      .cls-2 {
        stroke: #95323b;
        stroke-miterlimit: 10;
        stroke-width: .37px;
      }

      .cls-2, .cls-3 {
        fill: #95323b;
      }

      .cls-4 {
        fill: none;
      }

      .cls-5 {
        fill: #ddc99e;
      }

      .cls-6 {
        fill: url(#Degradado_sin_nombre_79);
      }
    </style>
    <linearGradient id="Degradado_sin_nombre_71" data-name="Degradado sin nombre 71" x1="331.79" y1="228.56" x2="285.44" y2="57.16" gradientUnits="userSpaceOnUse">
      <stop offset="0" stop-color="#712428"/>
      <stop offset=".18" stop-color="#742529"/>
      <stop offset=".35" stop-color="#80292f"/>
      <stop offset=".52" stop-color="#923039"/>
      <stop offset=".54" stop-color="#96323b"/>
    </linearGradient>
    <linearGradient id="Degradado_sin_nombre_79" data-name="Degradado sin nombre 79" x1="278.08" y1="244.56" x2="223.1" y2="60.76" gradientUnits="userSpaceOnUse">
      <stop offset="0" stop-color="#712428"/>
      <stop offset=".18" stop-color="#742529"/>
      <stop offset=".35" stop-color="#80292f"/>
      <stop offset=".52" stop-color="#923039"/>
      <stop offset=".54" stop-color="#96323b"/>
    </linearGradient>
  </defs>
  <g>
    <path class="cls-3" d="m98.59,346.53c-4.03-.95-4.97-2.93-4.97-4.95,0-4,3.65-6.02,8.58-6.02,5.52,0,9.98,2.51,9.98,5.67,0,2.06-1.87,2.89-3.48,2.89-4.25,0-3.82-5.94-6.41-5.94-1.57,0-1.95,2.06-1.95,3.28,0,1.79.89,3.35,2.63,3.96.64.23.93.5.93,1.14,0,.69-.34,1.07-1.32,1.26-3.44.65-4.63,4.61-4.63,7.58,0,4,2.17,6.44,5.35,6.44,2.89,0,4.76-1.9,4.76-5.03,0-1.94-.72-4.23-2.34-4.23-1.49,0-2.12,1.87-1.19,3.01.64.8.51,1.87-.51,2.32-.89.46-3.01.61-3.95-1.87-1.02-2.51.17-5.22,7.3-7.46,1.83-.57,3.4-.91,4.08-3.2.17-.53.47-1.26,1.49-1.45s2.34.19,2.68,1.98c.47,2.44-1.32,5.6-7.26,6.13,3.86.11,5.82,2.67,5.82,5.26,0,4.15-5.14,7.12-11.64,7.12s-11.68-3.24-11.68-9.45c0-4.34,2.34-7.69,7.73-8.46Z"/>
    <g>
      <path class="cls-3" d="m92.6,286.83c5.91,0,9.36.33,15,1.72v5.73c-.32,0-7.15-.92-13.24-.92s-7.03,3.59-7.03,13.12c0,10.04,1.16,12.75,6.69,12.79,3.64.02,6.71-2.43,6.71-2.43v-6.93h-5.46v-4.67c2.28-.96,5.42-1.32,9.3-1.32,1.12,0,2.34.05,3.62.16v21.84h-5.36l-2-2.59c-1.73,1.57-3.78,2.71-8.29,2.85-11.03.42-12.68-8.78-12.68-19.8s2.13-19.54,12.73-19.54Z"/>
      <path class="cls-3" d="m125.33,287.25h8.49l12.67,38.66h-7.94l-2.77-8.57h-12.77l-2.81,8.57h-8.01l13.16-38.66Zm8.67,23.54l-4.38-13.8-4.69,13.8h9.07Z"/>
      <path class="cls-3" d="m149.12,296.91c0-7.66,4.58-9.89,10.55-9.98,5.61-.12,12,.63,15.08,1.53v5.81c-3.41-.3-11.09-.53-13.03-.53-3.26-.07-5.14.15-5.14,3.75v1.89c0,3.06,1.18,3.72,4.2,3.72h6.16c7.64,0,9.22,5.97,9.22,10.25v2.57c0,8.78-5.52,10.4-10.79,10.4-6.66,0-11.02-.4-15.05-1.58v-5.81c2.13.21,8.63.58,13.58.58,2.24,0,4.8-.37,4.8-3.33v-2.08c0-2.2-.67-3.61-3.52-3.61h-5.99c-9.4,0-10.07-6.88-10.07-10.25v-3.34Z"/>
      <path class="cls-3" d="m177.98,287.25h28.83v6.81h-10.84v31.84h-7.46v-31.84h-10.52v-6.81Z"/>
      <path class="cls-3" d="m210.63,287.25h17.06c6.09,0,10.62,2.82,10.62,12.05s-4.04,10.71-6.21,11.38l7.39,15.22h-8.4l-6.45-14.63-6.55-.74v15.37h-7.46v-38.66Zm16.33,17.48c2.6,0,3.84-.75,3.84-5.43,0-4.39-1.49-5.48-3.84-5.48h-8.84v10.91h8.84Z"/>
      <path class="cls-3" d="m257.51,286.98c9.22,0,15.64,1.74,15.64,19.86,0,17.06-6.05,19.28-15.64,19.28s-15.69-1.69-15.69-19.28,6.74-19.86,15.69-19.86Zm0,32.32c6.26,0,8.18-2.04,8.18-12.46,0-12.04-2.25-13.04-8.18-13.04s-8.23.74-8.23,13.04c0,10.55,1.57,12.46,8.23,12.46Z"/>
      <path class="cls-3" d="m278.17,287.25h7.57l15.48,24.98v-24.98h7.46v38.66h-7.46l-15.53-24.69v24.69h-7.51v-38.66Z"/>
      <path class="cls-3" d="m329.38,286.98c9.22,0,15.64,1.74,15.64,19.86,0,17.06-6.05,19.28-15.64,19.28s-15.69-1.69-15.69-19.28,6.74-19.86,15.69-19.86Zm0,32.32c6.26,0,8.18-2.04,8.18-12.46,0-12.04-2.25-13.04-8.18-13.04s-8.23.74-8.23,13.04c0,10.55,1.57,12.46,8.23,12.46Z"/>
      <path class="cls-3" d="m351.93,287.25h10.36l6.49,26.41,6.47-26.41h10.33l3.66,38.66h-7.37l-2.54-25.8-6.3,25.8h-8.33l-6.53-25.8-2.31,25.8h-7.37l3.44-38.66Z"/>
      <path class="cls-3" d="m394.63,287.25h7.46v38.66h-7.46v-38.66Zm6.13-10.75h6.53l-6.5,7.31h-4.85l4.82-7.31Z"/>
      <path class="cls-3" d="m419.42,287.25h8.49l12.67,38.66h-7.94l-2.77-8.57h-12.78l-2.81,8.57h-8.01l13.16-38.66Zm8.67,23.54l-4.38-13.8-4.69,13.8h9.07Z"/>
    </g>
    <g>
      <path class="cls-3" d="m129.39,335.99h8.49l12.67,38.66h-7.94l-2.77-8.57h-12.77l-2.81,8.57h-8.01l13.16-38.66Zm8.67,23.54l-4.38-13.8-4.69,13.8h9.07Z"/>
      <path class="cls-3" d="m155.8,335.99h7.46v29.1c0,2.8,1.76,2.75,3.3,2.75h13.37v6.81h-16.01c-4.25,0-8.13-1.56-8.13-7.53v-31.13Z"/>
      <path class="cls-3" d="m176.55,335.99h28.83v6.81h-10.84v31.84h-7.46v-31.84h-10.52v-6.81Z"/>
      <path class="cls-3" d="m216.55,335.99h8.49l12.67,38.66h-7.94l-2.77-8.57h-12.77l-2.81,8.57h-8.01l13.16-38.66Zm8.67,23.54l-4.38-13.8-4.69,13.8h9.07Z"/>
      <path class="cls-3" d="m267.26,335.57c5.47,0,9.39.52,13.59,1.76v5.79c-.05,0-6.6-.73-11.83-.73s-7.56,1.24-7.56,12.94c0,8.66,1.44,12.83,7.59,12.83,5.59,0,11.8-.43,11.8-.43v5.79c-3.5,1.06-8,1.54-13.59,1.45-9.86-.09-13.27-7.5-13.27-19.75s2.66-19.65,13.27-19.65Z"/>
      <path class="cls-3" d="m299.46,335.73c9.22,0,15.64,1.74,15.64,19.86,0,17.06-6.05,19.28-15.64,19.28s-15.69-1.69-15.69-19.28,6.74-19.86,15.69-19.86Zm0,32.32c6.26,0,8.18-2.04,8.18-12.46,0-12.04-2.25-13.04-8.18-13.04s-8.23.74-8.23,13.04c0,10.55,1.57,12.46,8.23,12.46Z"/>
      <path class="cls-3" d="m332.1,335.57c5.47,0,9.39.52,13.59,1.76v5.79c-.05,0-6.6-.73-11.83-.73s-7.56,1.24-7.56,12.94c0,8.66,1.44,12.83,7.59,12.83,5.59,0,11.8-.43,11.8-.43v5.79c-3.5,1.06-8,1.54-13.59,1.45-9.86-.09-13.26-7.5-13.26-19.75s2.66-19.65,13.26-19.65Z"/>
      <path class="cls-3" d="m350.27,335.99h7.46v38.66h-7.46v-38.66Z"/>
      <path class="cls-3" d="m364.49,335.99h7.57l15.48,24.98v-24.98h7.46v38.66h-7.46l-15.53-24.69v24.69h-7.51v-38.66Z"/>
      <path class="cls-3" d="m412.35,335.99h8.49l12.67,38.66h-7.94l-2.77-8.57h-12.78l-2.81,8.57h-8.01l13.16-38.66Zm8.67,23.54l-4.38-13.8-4.69,13.8h9.07Z"/>
    </g>
    <g>
      <path class="cls-3" d="m141.17,261.06c2.28,0,3.92.22,5.68.75v2.49s-2.76-.31-4.94-.31-3.16.53-3.16,5.56c0,3.72.6,5.51,3.17,5.51,2.34,0,4.93-.18,4.93-.18v2.49c-1.46.46-3.34.66-5.68.62-4.12-.04-5.54-3.22-5.54-8.49s1.11-8.44,5.54-8.44Z"/>
      <path class="cls-3" d="m154.62,261.13c3.85,0,6.54.75,6.54,8.53,0,7.33-2.53,8.28-6.54,8.28s-6.56-.73-6.56-8.28,2.82-8.53,6.56-8.53Zm0,13.89c2.62,0,3.42-.88,3.42-5.35,0-5.17-.94-5.6-3.42-5.6s-3.44.32-3.44,5.6c0,4.53.66,5.35,3.44,5.35Z"/>
      <path class="cls-3" d="m163.25,261.24h3.16l6.47,10.73v-10.73h3.12v16.61h-3.12l-6.49-10.61v10.61h-3.14v-16.61Z"/>
      <path class="cls-3" d="m183.24,261.06c2.47,0,3.91.14,6.27.74v2.46c-.13,0-2.99-.4-5.53-.4s-2.94,1.54-2.94,5.64c0,4.31.48,5.48,2.79,5.5,1.52,0,2.81-1.04,2.81-1.04v-2.98h-2.28v-2.01c.95-.41,2.27-.57,3.89-.57.47,0,.98.02,1.51.07v9.38h-2.24l-.83-1.11c-.72.68-1.58,1.16-3.46,1.23-4.61.18-5.3-3.77-5.3-8.51s.89-8.4,5.32-8.4Z"/>
      <path class="cls-3" d="m191.79,261.24h7.13c2.54,0,4.44,1.21,4.44,5.18s-1.69,4.6-2.59,4.89l3.09,6.54h-3.51l-2.69-6.29-2.74-.32v6.6h-3.12v-16.61Zm6.82,7.51c1.09,0,1.6-.32,1.6-2.33,0-1.89-.62-2.35-1.6-2.35h-3.69v4.69h3.69Z"/>
      <path class="cls-3" d="m205.46,264.69c0-2.88,2-3.48,3.54-3.45,0,0,5.74.16,7.17.36v2.63h-6.44c-1.16,0-1.16.66-1.16,1.27v2.59l6.58.24v2.61l-6.58.21v2.59c0,1.2.73,1.18,1.38,1.18h6.21v2.6c-1.26.17-6.95.39-6.95.39-1.45.07-3.76-.27-3.76-3.33v-9.9Z"/>
      <path class="cls-3" d="m217.89,265.39c0-3.29,1.92-4.25,4.41-4.29,2.34-.05,5.01.27,6.3.66v2.5c-1.42-.13-4.64-.23-5.44-.23-1.36-.03-2.15.07-2.15,1.61v.81c0,1.32.49,1.6,1.76,1.6h2.57c3.19,0,3.85,2.57,3.85,4.4v1.11c0,3.77-2.31,4.47-4.51,4.47-2.78,0-4.6-.17-6.29-.68v-2.5c.89.09,3.6.25,5.68.25.94,0,2-.16,2-1.43v-.89c0-.94-.28-1.55-1.47-1.55h-2.5c-3.93,0-4.21-2.96-4.21-4.4v-1.44Z"/>
      <path class="cls-3" d="m237.58,261.13c3.85,0,6.54.75,6.54,8.53,0,7.33-2.53,8.28-6.54,8.28s-6.56-.73-6.56-8.28,2.82-8.53,6.56-8.53Zm0,13.89c2.62,0,3.42-.88,3.42-5.35,0-5.17-.94-5.6-3.42-5.6s-3.44.32-3.44,5.6c0,4.53.66,5.35,3.44,5.35Z"/>
      <path class="cls-3" d="m251.77,261.24h3.16l6.47,10.73v-10.73h3.12v16.61h-3.12l-6.49-10.61v10.61h-3.14v-16.61Z"/>
      <path class="cls-3" d="m271.76,261.24h3.54l5.29,16.61h-3.32l-1.16-3.68h-5.34l-1.17,3.68h-3.35l5.5-16.61Zm3.62,10.11l-1.83-5.93-1.96,5.93h3.79Z"/>
      <path class="cls-3" d="m286.72,261.06c2.28,0,3.92.22,5.68.75v2.49s-2.76-.31-4.94-.31-3.16.53-3.16,5.56c0,3.72.6,5.51,3.17,5.51,2.34,0,4.93-.18,4.93-.18v2.49c-1.46.46-3.34.66-5.68.62-4.12-.04-5.54-3.22-5.54-8.49s1.11-8.44,5.54-8.44Z"/>
      <path class="cls-3" d="m294.31,261.24h3.12v16.61h-3.12v-16.61Z"/>
      <path class="cls-3" d="m306.06,261.13c3.85,0,6.54.75,6.54,8.53,0,7.33-2.53,8.28-6.54,8.28s-6.55-.73-6.55-8.28,2.81-8.53,6.55-8.53Zm0,13.89c2.62,0,3.42-.88,3.42-5.35,0-5.17-.94-5.6-3.42-5.6s-3.44.32-3.44,5.6c0,4.53.66,5.35,3.44,5.35Z"/>
      <path class="cls-3" d="m314.69,261.24h3.16l6.47,10.73v-10.73h3.12v16.61h-3.12l-6.49-10.61v10.61h-3.14v-16.61Z"/>
      <path class="cls-3" d="m334.69,261.24h3.54l5.29,16.61h-3.32l-1.16-3.68h-5.34l-1.17,3.68h-3.35l5.5-16.61Zm3.62,10.11l-1.83-5.93-1.96,5.93h3.79Z"/>
      <path class="cls-3" d="m345.19,261.24h3.12v12.5c0,1.2.74,1.18,1.38,1.18h5.59v2.93h-6.69c-1.78,0-3.39-.67-3.39-3.23v-13.38Z"/>
      <path class="cls-3" d="m362.75,261.24h6.92c4.69,0,5.65,4.26,5.65,8.37,0,4.89-1.67,8.24-5.65,8.24h-6.92v-16.61Zm6.68,13.78c2.02,0,2.78-2.09,2.78-5.43,0-4.44-1.04-5.55-2.78-5.55h-3.56v10.97h3.56Z"/>
      <path class="cls-3" d="m376.98,264.69c0-2.88,2-3.48,3.54-3.45,0,0,5.74.16,7.17.36v2.63h-6.44c-1.16,0-1.16.66-1.16,1.27v2.59l6.58.24v2.61l-6.58.21v2.59c0,1.2.73,1.18,1.38,1.18h6.21v2.6c-1.26.17-6.95.39-6.95.39-1.45.07-3.76-.27-3.76-3.33v-9.9Z"/>
    </g>
    <g>
      <path class="cls-2" d="m106.42,399.39c-4.04,0-5.38-3.14-3.6-8.03,1.77-4.85,5.85-6.83,8.01-6.83.54,0,.68.4.58.68-.11.3-.24.32-.24.32-2.8,0-5.18,2.34-6.46,5.84-1.5,4.11-.94,7.19,2.01,7.19s6.05-3.25,7.64-7.61c1.49-4.09.46-7.4-2.74-7.4-3.52,0-6.87,2.28-7.92,4.89,0,0-.17.19-.45.17-.26-.02-.44-.25-.26-.76.75-2.05,4.28-5.36,9.06-5.36,4.53,0,5.9,3.82,4.2,8.48-1.88,5.15-5.7,8.43-9.83,8.43Z"/>
      <path class="cls-2" d="m117.25,398.15s-.31.3-.89.3-.93-.38-.6-1.29l2.93-8.01s.31-.29.89-.29.93.38.6,1.29l-.58,1.6c1.04-1.37,2.38-2.61,3.8-2.61,1.88,0,2.02,1.29,1.62,2.38-.27.74-.96,1.16-1.41,1.16-.49,0-.52-.25-.52-.25,0,0,.24-.32.41-.78.35-.95.02-1.69-.72-1.69-1.44,0-3.8,3.52-4.28,4.85l-1.22,3.35Z"/>
      <path class="cls-2" d="m136.27,393.38c.16,0,.29.21-.04,1.12-.85,2.34-2.47,3.94-4.3,3.94-1.48,0-2.14-.74-2.11-2-.98,1.29-2.21,2-3.68,2-1.65,0-2.47-1.03-1.73-3.06l1.92-5.25c.33-.91.98-1.29,1.54-1.29s.68.29.68.29l-2.21,6.05c-.68,1.86-.42,2.51.32,2.51,1.09,0,2.93-1.37,4.02-4.34l1.18-3.23c.33-.91,1.09-1.29,1.64-1.29s.67.29.69.29l-2.21,6.05c-.6,1.65-.33,2.43.49,2.43.72,0,2.17-.65,3.44-4.11,0,0,.07-.13.36-.13Z"/>
      <path class="cls-2" d="m136.12,398.15s-.31.3-.89.3-.93-.38-.6-1.29l2.93-8.01s.31-.29.89-.29.93.38.6,1.29l-.58,1.6c1.04-1.37,2.38-2.61,3.8-2.61,1.88,0,2.02,1.29,1.62,2.38-.27.74-.96,1.16-1.41,1.16-.49,0-.52-.25-.52-.25,0,0,.24-.32.41-.78.35-.95.02-1.69-.72-1.69-1.44,0-3.8,3.52-4.28,4.85l-1.22,3.35Z"/>
      <path class="cls-2" d="m146.45,398.44c-2.27,0-3.6-1.67-2.44-4.83,1.12-3.06,3.43-4.77,5.84-4.77s3.51,1.62,2.36,4.77c-.93,2.55-3.2,4.83-5.76,4.83Zm.3-.82c1.09,0,1.85-.55,2.54-1.83-1.69-.4-2.76-1.86-2.88-3.35-.15.36-.3.76-.45,1.18-1.05,2.87-.8,4.01.78,4.01Zm1.02-6.85c-.67,1.83.28,3.69,1.94,4.22.17-.4.36-.86.54-1.37,1.04-2.85.99-3.94-.72-3.94-.7,0-1.49.36-1.76,1.1Z"/>
      <path class="cls-2" d="m154.35,398.59c.08-.21.12-.38.14-.55-.25.23-.59.38-.92.38-.54,0-.81-.44-.61-.99.21-.57.8-1.01,1.34-1.01h.02c.93,0,1.41.65.89,2.09-.48,1.33-1.52,2.26-2.37,2.26-.37,0-.59-.19-.51-.4.11-.3.27-.34.27-.34.78,0,1.44-.57,1.76-1.43Z"/>
      <path class="cls-2" d="m165.84,391.04c.5-1.31,1.89-2.19,4.24-2.19s3.12.99,2.77,1.96c-.2.55-.78.84-1.19.84-.5,0-.53-.25-.53-.25,0,0,.18-.15.3-.48.28-.76-.66-1.24-1.56-1.24-1.03,0-1.98.36-2.28,1.16-.84,2.3,5.07,1.69,3.88,4.93-.69,1.88-2.79,2.68-5.12,2.68-2.55,0-3.57-1.73-2.79-3.86.29-.8.81-1.26,1.29-1.26s.48.25.48.25c0,0-.24.32-.41.78-.65,1.79-.12,3.27,1.83,3.27,1.44,0,2.35-.46,2.78-1.58.91-2.45-4.95-1.73-3.7-5Z"/>
      <path class="cls-2" d="m185.02,393.38c.17,0,.29.21-.04,1.12-.85,2.34-2.47,3.94-4.3,3.94-1.42,0-2.08-.68-2.08-1.88-.89,1.1-2.11,1.88-3.3,1.88-2.27,0-3.1-1.39-1.84-4.83,1.25-3.44,3.55-4.77,5.84-4.77,1.05,0,1.58.25,1.79.61.34-.42.78-.61,1.17-.61.58,0,.68.29.68.29l-2.21,6.05c-.6,1.65-.33,2.43.49,2.43,1.13,0,2.33-1.08,3.44-4.11,0,0,.07-.13.35-.13Zm-6.01,1.39l1.05-2.89c.51-1.39-.04-2.21-.88-2.21-1.36,0-2.48.42-3.77,3.94-1.29,3.52-.58,4.01.43,4.01.7,0,2.48-.97,3.16-2.85Z"/>
      <path class="cls-2" d="m187.25,386.59c1.24-3.4,2.33-5.21,4.39-5.21,1.05,0,1.31.93.7,2.59-.7,1.92-2.72,3.67-3.96,4.6l-.41,1.12c.72-.57,1.5-.84,2.24-.84,2.29,0,3.51,1.62,2.36,4.77-1.15,3.14-3.49,4.83-5.76,4.83s-3.34-1.52-2.52-3.75l2.96-8.1Zm-.46,6.35l-.4,1.1c-.92,2.53-.69,3.58.73,3.58,1.59,0,2.46-1.16,3.5-4.01,1.04-2.85.99-3.94-.72-3.94-1.42,0-2.25.91-3.11,3.27Zm2.3-6.3l-.34.93c.95-.84,2.19-2.15,2.73-3.65.47-1.29.34-1.71-.12-1.71-.58,0-.99.91-2.28,4.43Z"/>
      <path class="cls-2" d="m196.54,398.44c-2.27,0-3.6-1.67-2.44-4.83,1.12-3.06,3.43-4.77,5.84-4.77s3.51,1.62,2.36,4.77c-.93,2.55-3.2,4.83-5.76,4.83Zm.3-.82c1.09,0,1.85-.55,2.54-1.83-1.69-.4-2.76-1.86-2.88-3.35-.15.36-.3.76-.45,1.18-1.05,2.87-.8,4.01.78,4.01Zm1.02-6.85c-.67,1.83.28,3.69,1.94,4.22.17-.4.36-.86.54-1.37,1.04-2.85.99-3.94-.72-3.94-.7,0-1.49.36-1.76,1.1Z"/>
      <path class="cls-2" d="m203.94,398.15s-.31.3-.89.3-.93-.38-.6-1.29l2.93-8.01s.31-.29.89-.29.93.38.6,1.29l-.58,1.6c1.04-1.37,2.38-2.61,3.8-2.61,1.88,0,2.02,1.29,1.62,2.38-.27.74-.96,1.16-1.41,1.16-.49,0-.52-.25-.52-.25,0,0,.24-.32.41-.78.35-.95.02-1.69-.72-1.69-1.44,0-3.8,3.52-4.28,4.85l-1.22,3.35Z"/>
      <path class="cls-2" d="m220.37,393.64c.27,0,.33.27.19.67-.65,1.77-2.7,4.13-5.65,4.13s-4.34-1.6-3.24-4.62c1.2-3.29,3.63-4.98,5.92-4.98,1.87,0,2.02,1.29,1.62,2.38-.77,2.11-3.23,3.67-5.91,3.67-.41,1.85.39,2.72,1.91,2.72,1.63,0,3.82-1.14,4.81-3.86,0,0,.07-.13.35-.13Zm-6.85.48c1.45-.19,3.47-.86,4.16-2.76.4-1.1.12-1.69-.72-1.69-1.28,0-2.23,1.14-3.37,4.26l-.07.19Z"/>
      <path class="cls-2" d="m221.3,391.04c.5-1.31,1.89-2.19,4.24-2.19s3.12.99,2.77,1.96c-.2.55-.78.84-1.19.84-.5,0-.53-.25-.53-.25,0,0,.18-.15.3-.48.28-.76-.66-1.24-1.56-1.24-1.03,0-1.98.36-2.28,1.16-.84,2.3,5.07,1.69,3.88,4.93-.69,1.88-2.79,2.68-5.12,2.68-2.55,0-3.57-1.73-2.79-3.86.29-.8.81-1.26,1.29-1.26s.48.25.48.25c0,0-.24.32-.41.78-.65,1.79-.12,3.27,1.83,3.27,1.44,0,2.35-.46,2.78-1.58.91-2.45-4.95-1.73-3.7-5Z"/>
      <path class="cls-2" d="m244.69,394.06c.27,0,.33.27.19.68-.49,1.35-2.55,3.71-5.5,3.71s-4.34-1.6-3.24-4.62c1.2-3.29,3.63-4.98,5.92-4.98,1.87,0,2.02,1.29,1.62,2.38-.27.74-.96,1.16-1.41,1.16-.5,0-.53-.25-.53-.25,0,0,.24-.32.41-.78.35-.95.02-1.69-.72-1.69-1.28,0-2.23,1.14-3.37,4.26-.92,2.53-.15,3.69,1.62,3.69s3.82-1.14,4.65-3.44c0,0,.07-.13.35-.13Z"/>
      <path class="cls-2" d="m247.1,398.44c-2.27,0-3.6-1.67-2.44-4.83,1.12-3.06,3.43-4.77,5.84-4.77s3.51,1.62,2.36,4.77c-.93,2.55-3.2,4.83-5.76,4.83Zm.3-.82c1.09,0,1.85-.55,2.54-1.83-1.69-.4-2.76-1.86-2.88-3.35-.15.36-.3.76-.45,1.18-1.05,2.87-.8,4.01.78,4.01Zm1.02-6.85c-.67,1.83.28,3.69,1.94,4.22.17-.4.36-.86.54-1.37,1.04-2.85.99-3.94-.72-3.94-.7,0-1.49.36-1.76,1.1Z"/>
      <path class="cls-2" d="m265.51,393.38c.16,0,.29.21-.04,1.12-.85,2.34-2.47,3.94-4.3,3.94-2.08,0-2.53-1.48-1.65-3.88l.9-2.47c.68-1.86.42-2.51-.32-2.51-1.26,0-2.89,1.08-4.3,4.95l-1.32,3.6s-.31.3-.89.3-.93-.38-.6-1.29l2.93-8.01s.31-.29.89-.29.95.34.49,1.58c.93-1.01,2.02-1.58,3.32-1.58,1.73,0,2.51,1.14,1.7,3.35l-1.09,2.99c-.6,1.65-.33,2.43.5,2.43.93,0,2.25-.87,3.44-4.11,0,0,.07-.13.36-.13Z"/>
      <path class="cls-2" d="m284,393.38c.17,0,.29.21-.04,1.12-.85,2.34-2.47,3.94-4.3,3.94-1.42,0-2.08-.68-2.08-1.88-.89,1.1-2.11,1.88-3.3,1.88-2.27,0-3.1-1.39-1.84-4.83,1.25-3.44,3.55-4.77,5.84-4.77,1.05,0,1.58.25,1.79.61.34-.42.78-.61,1.17-.61.58,0,.67.29.67.29l-2.21,6.05c-.6,1.65-.33,2.43.5,2.43,1.13,0,2.33-1.08,3.44-4.11,0,0,.07-.13.35-.13Zm-6.01,1.39l1.05-2.89c.51-1.39-.04-2.21-.88-2.21-1.36,0-2.48.42-3.77,3.94-1.29,3.52-.58,4.01.43,4.01.7,0,2.48-.97,3.16-2.85Z"/>
      <path class="cls-2" d="m289.79,393.38c.16,0,.29.21-.04,1.12-.78,2.13-2.7,3.94-4.51,3.94-2.27,0-2.78-1.48-1.9-3.88l2.89-7.93c1.25-3.44,2.47-5.25,4.43-5.25,1.36,0,1.71.91,1.01,2.83-1.18,3.23-3.39,4.72-4.63,5.33l-2.06,5.65c-.6,1.65-.21,2.43.8,2.43.8,0,2.46-.87,3.64-4.11,0,0,.09-.13.36-.13Zm.99-9.15c.52-1.43.33-2.02-.25-2.02-.62,0-1,.55-3.16,6.45.97-.57,2.45-1.79,3.41-4.43Z"/>
      <path class="cls-2" d="m292.61,389.88l-1.94,5.31c-.6,1.65.25,2.43,1.26,2.43,1.67,0,2.9-1.18,3.97-4.11,0,0,.09-.13.36-.13.17,0,.29.21-.04,1.12-.76,2.09-2.39,3.94-4.84,3.94-2.21,0-3.33-1.16-2.4-3.69l2.83-7.74c.33-.91.98-1.29,1.54-1.29s.67.3.67.3l-1.14,3.12h2.82c.6,0,.62.23.43.74h-3.52Z"/>
      <path class="cls-2" d="m307.13,393.38c.16,0,.29.21-.04,1.12-.85,2.34-2.47,3.94-4.3,3.94-1.48,0-2.14-.74-2.11-2-.98,1.29-2.21,2-3.68,2-1.65,0-2.46-1.03-1.73-3.06l1.92-5.25c.33-.91.98-1.29,1.54-1.29s.67.29.67.29l-2.21,6.05c-.68,1.86-.42,2.51.32,2.51,1.09,0,2.93-1.37,4.02-4.34l1.18-3.23c.33-.91,1.09-1.29,1.64-1.29s.67.29.7.29l-2.21,6.05c-.6,1.65-.33,2.43.49,2.43.72,0,2.17-.65,3.44-4.11,0,0,.07-.13.36-.13Z"/>
      <path class="cls-2" d="m306.98,398.15s-.31.3-.89.3-.93-.38-.6-1.29l2.93-8.01s.31-.29.89-.29.93.38.6,1.29l-.58,1.6c1.04-1.37,2.38-2.61,3.8-2.61,1.88,0,2.02,1.29,1.62,2.38-.27.74-.96,1.16-1.41,1.16-.49,0-.52-.25-.52-.25,0,0,.24-.32.41-.78.35-.95.02-1.69-.72-1.69-1.44,0-3.8,3.52-4.28,4.85l-1.22,3.35Z"/>
      <path class="cls-2" d="m326.33,393.38c.17,0,.29.21-.04,1.12-.85,2.34-2.47,3.94-4.3,3.94-1.42,0-2.08-.68-2.08-1.88-.89,1.1-2.11,1.88-3.3,1.88-2.27,0-3.1-1.39-1.84-4.83,1.25-3.44,3.55-4.77,5.84-4.77,1.05,0,1.58.25,1.79.61.34-.42.78-.61,1.17-.61.58,0,.68.29.68.29l-2.21,6.05c-.6,1.65-.33,2.43.49,2.43,1.13,0,2.33-1.08,3.44-4.11,0,0,.07-.13.35-.13Zm-6.01,1.39l1.05-2.89c.51-1.39-.04-2.21-.88-2.21-1.36,0-2.48.42-3.77,3.94-1.29,3.52-.58,4.01.43,4.01.7,0,2.48-.97,3.16-2.85Z"/>
      <path class="cls-2" d="m340.16,390.14c.33-.91.98-1.29,1.54-1.29s.67.29.67.29l-3.91,10.71c.26-.02.5-.02.77-.02.47,0,.44.32.39.46-.06.17-.24.32-.24.32-.39,0-.78,0-1.2.02l-.38,1.06c-1.07,2.93-3.11,4.68-5.23,4.68-1.05,0-2.2-.57-1.53-2.4.82-2.26,3.06-3.42,5.5-3.88l1.2-3.29c-.94,1.05-2.06,1.64-3.38,1.64-1.73,0-2.43-1.14-1.62-3.35l1.81-4.95c.33-.91.98-1.29,1.54-1.29s.67.29.67.29l-2.21,6.05c-.68,1.86-.42,2.51.32,2.51,1.28,0,2.94-1.12,4.45-5.25l.85-2.32Zm-8.1,13.9c-.38,1.03.1,1.52.76,1.52,1.05,0,1.98-.74,3.41-4.66-1.81.38-3.47,1.22-4.17,3.14Z"/>
      <path class="cls-2" d="m353.8,389.88l-1.94,5.31c-.6,1.65.25,2.43,1.26,2.43,1.67,0,2.9-1.18,3.97-4.11,0,0,.09-.13.36-.13.17,0,.29.21-.04,1.12-.76,2.09-2.39,3.94-4.84,3.94-2.21,0-3.33-1.16-2.4-3.69l2.83-7.74c.33-.91.98-1.29,1.54-1.29s.67.3.67.3l-1.14,3.12h2.82c.6,0,.62.23.43.74h-3.52Z"/>
      <path class="cls-2" d="m357.31,398.15s-.31.3-.89.3-.93-.38-.6-1.29l2.93-8.01s.31-.29.89-.29.93.38.6,1.29l-.58,1.6c1.04-1.37,2.38-2.61,3.8-2.61,1.88,0,2.02,1.29,1.62,2.38-.27.74-.96,1.16-1.41,1.16-.49,0-.52-.25-.52-.25,0,0,.24-.32.41-.78.35-.95.02-1.69-.72-1.69-1.44,0-3.8,3.52-4.28,4.85l-1.22,3.35Z"/>
      <path class="cls-2" d="m376.66,393.38c.17,0,.29.21-.04,1.12-.85,2.34-2.47,3.94-4.3,3.94-1.42,0-2.08-.68-2.08-1.88-.89,1.1-2.11,1.88-3.3,1.88-2.27,0-3.1-1.39-1.84-4.83,1.25-3.44,3.55-4.77,5.84-4.77,1.05,0,1.58.25,1.79.61.34-.42.78-.61,1.17-.61.58,0,.68.29.68.29l-2.21,6.05c-.6,1.65-.33,2.43.49,2.43,1.13,0,2.33-1.08,3.44-4.11,0,0,.07-.13.35-.13Zm-6.01,1.39l1.05-2.89c.51-1.39-.04-2.21-.88-2.21-1.36,0-2.48.42-3.77,3.94-1.29,3.52-.58,4.01.43,4.01.7,0,2.48-.97,3.16-2.85Z"/>
      <path class="cls-2" d="m382.15,388.85c.93,0,1.43.21,1.72.48l1.05-2.87c1.22-3.33,2.33-5.08,4.35-5.08,1.05,0,1.31.93.7,2.59-.7,1.92-2.72,3.67-3.96,4.6l-2.42,6.62c-.6,1.65-.29,2.43.6,2.43.64,0,2.13-.76,3.12-3.48.08-.21.15-.4.21-.63,0,0,.07-.13.35-.13.17,0,.29.21-.04,1.12-.85,2.34-2.57,3.94-4.2,3.94-1.5,0-2.19-.72-2.16-1.98-.9,1.12-2.14,1.96-3.31,1.96-2.27,0-3.06-1.5-1.8-4.93,1.25-3.44,3.51-4.64,5.79-4.64Zm-.23,5.71l.99-2.7c.53-1.46,0-2.19-.87-2.19-1.36,0-2.44.3-3.72,3.82-1.29,3.52-.62,4.11.39,4.11.86,0,2.52-1.14,3.21-3.04Zm4.45-7c.95-.84,2.19-2.15,2.73-3.65.47-1.29.33-1.71-.12-1.71-.58,0-.99.91-2.61,5.36Z"/>
      <path class="cls-2" d="m393.61,393.38c.16,0,.29.21-.04,1.12-.78,2.13-2.7,3.94-4.51,3.94-2.27,0-2.76-1.48-1.88-3.88l1.62-4.43c.33-.91.99-1.29,1.54-1.29s.67.29.67.29l-2.21,6.05c-.6,1.65-.21,2.43.8,2.43.8,0,2.46-.87,3.64-4.11,0,0,.09-.13.36-.13Zm-1.85-8.75c.68,0,1.03.57.77,1.27-.25.7-1.01,1.24-1.69,1.24s-1.02-.55-.76-1.24c.25-.7,1-1.27,1.68-1.27Z"/>
      <path class="cls-2" d="m401.73,394.06c.27,0,.33.27.19.68-.49,1.35-2.55,3.71-5.5,3.71s-4.34-1.6-3.24-4.62c1.2-3.29,3.63-4.98,5.92-4.98,1.87,0,2.02,1.29,1.62,2.38-.27.74-.96,1.16-1.41,1.16-.5,0-.53-.25-.53-.25,0,0,.24-.32.41-.78.35-.95.02-1.69-.72-1.69-1.28,0-2.23,1.14-3.37,4.26-.92,2.53-.15,3.69,1.62,3.69s3.82-1.14,4.65-3.44c0,0,.07-.13.35-.13Z"/>
      <path class="cls-2" d="m407.74,393.38c.16,0,.29.21-.04,1.12-.78,2.13-2.7,3.94-4.51,3.94-2.27,0-2.76-1.48-1.88-3.88l1.62-4.43c.33-.91.99-1.29,1.54-1.29s.68.29.68.29l-2.21,6.05c-.6,1.65-.21,2.43.8,2.43.8,0,2.46-.87,3.64-4.11,0,0,.09-.13.36-.13Zm-1.85-8.75c.68,0,1.03.57.77,1.27-.25.7-1.01,1.24-1.69,1.24s-1.02-.55-.76-1.24c.25-.7,1-1.27,1.68-1.27Z"/>
      <path class="cls-2" d="m409.93,398.44c-2.27,0-3.59-1.67-2.44-4.83,1.12-3.06,3.43-4.77,5.84-4.77s3.51,1.62,2.36,4.77c-.93,2.55-3.2,4.83-5.76,4.83Zm.3-.82c1.09,0,1.85-.55,2.54-1.83-1.69-.4-2.76-1.86-2.88-3.35-.15.36-.3.76-.45,1.18-1.05,2.87-.8,4.01.78,4.01Zm1.02-6.85c-.67,1.83.28,3.69,1.94,4.22.17-.4.36-.86.54-1.37,1.04-2.85.99-3.94-.72-3.94-.7,0-1.49.36-1.76,1.1Zm3.68-4.22c-.47.51-.91.67-1.21.67-.66,0-.57-.8-.57-.8l3.74-4.09c.47-.51.89-.7,1.24-.7.64,0,.59.8.59.8l-3.79,4.11Z"/>
      <path class="cls-2" d="m428.34,393.38c.16,0,.29.21-.04,1.12-.85,2.34-2.47,3.94-4.3,3.94-2.08,0-2.53-1.48-1.65-3.88l.9-2.47c.68-1.86.42-2.51-.32-2.51-1.26,0-2.89,1.08-4.3,4.95l-1.32,3.6s-.31.3-.89.3-.93-.38-.6-1.29l2.93-8.01s.31-.29.89-.29.95.34.49,1.58c.93-1.01,2.02-1.58,3.32-1.58,1.73,0,2.51,1.14,1.7,3.35l-1.09,2.99c-.6,1.65-.33,2.43.5,2.43.93,0,2.25-.87,3.44-4.11,0,0,.07-.13.36-.13Z"/>
    </g>
  </g>
  <g>
    <g>
      <path class="cls-5" d="m234.57,45.99c-.09-4.49-1.99-5.19-7.91-6.72-1.13-.29-7.78-2.64-9.81-1.44-21.55,12.79-37.74,33.67-44.41,58.46-1.25,4.58-2.17,9.28-2.72,14.08.15.58.67.98,1.25.98h21.53c.79,0,1.4-.64,1.4-1.41v-17.87c0-.73.59-1.31,1.31-1.31h17.07c.72,0,1.31-.59,1.31-1.31v-17.5c0-.73.58-1.31,1.28-1.31h19.55c.53,0,.96-.42.94-.95-.28-7.52-.76-20.5-.82-23.69Z"/>
      <g>
        <path class="cls-4" d="m234.57,45.99c-.09-4.49-1.99-5.19-7.91-6.72-1.13-.29-7.78-2.64-9.81-1.44-21.55,12.79-37.74,33.67-44.41,58.46-1.25,4.58-2.17,9.28-2.72,14.08.15.58.67.98,1.25.98h21.53c.79,0,1.4-.64,1.4-1.41v-17.87c0-.73.59-1.31,1.31-1.31h17.07c.72,0,1.31-.59,1.31-1.31v-17.5c0-.73.58-1.31,1.28-1.31h19.55c.53,0,.96-.42.94-.95-.28-7.52-.76-20.5-.82-23.69Z"/>
        <g>
          <path class="cls-5" d="m234.78,45.99c-.03-.13-.09-.05-.06.29l.11.25-.05-.54Z"/>
          <path class="cls-5" d="m234.67,48.34c.06.41.17.88.25.61-.11-.4-.07-.5-.21-.94-.02-.35.01-.61.05-.55-.03-.12,0-.54-.07-.73-.06.45-.05,1.03.04,1.63-.02.13-.05,0-.07-.02Z"/>
          <path class="cls-5" d="m223.27,70.5h.22c-.06,0-.14,0-.22,0Z"/>
          <path class="cls-5" d="m213.42,82.64c0-.16-.01-.23-.02-.24,0,.15.01.27.02.24Z"/>
          <path class="cls-5" d="m213.31,86.24c0-.08,0-.14,0-.21,0,.08-.01.16,0,.21Z"/>
          <path class="cls-5" d="m223.27,70.5l-.56-.03s.29.02.56.03Z"/>
          <path class="cls-5" d="m235.08,53.02c0-.12-.02-.22-.04-.31l.02.29s.01,0,.02.02Z"/>
          <path class="cls-5" d="m232.57,70.41h.17c.05-.01.1-.03.14-.04l-.31.04Z"/>
          <path class="cls-5" d="m235.02,65.94c0,.16.09.21.13.28-.04-.09-.06-.21-.07-.35-.02,0-.04.02-.06.07Z"/>
          <path class="cls-5" d="m234.78,54.63l-.02-.2c0,.05.01.14.02.2Z"/>
          <path class="cls-5" d="m227.46,70.39s-.04-.02-.07-.03c0,.01.03.02.07.03Z"/>
          <path class="cls-5" d="m229.96,39.77s0,.01,0,.01c.04,0,.06,0,0-.01Z"/>
          <path class="cls-5" d="m234.55,46v-.11s-.04-.02-.06-.02l.06.14Z"/>
          <path class="cls-5" d="m210.99,90.34s.02,0,.03,0c.17,0,.08,0-.03,0Z"/>
          <path class="cls-5" d="m170.29,110.68c.16.2-.02.1-.15-.05-.11-.14-.23-.29-.03.12-.03-.03.64.39.18-.07Z"/>
          <path class="cls-5" d="m235.07,53.21v.29c0-.13,0-.22,0-.29Z"/>
          <path class="cls-5" d="m170.11,110.75h0s.05.08.05.08c-.02-.03-.03-.05-.05-.08Z"/>
          <path class="cls-5" d="m195.8,90.4s.09.03.15.04c0,0-.04-.02-.15-.04Z"/>
          <path class="cls-5" d="m207.12,90.52h-.28c.11,0,.2,0,.28,0Z"/>
          <path class="cls-5" d="m193.67,95.32c0,.15-.02.2,0,.41,0-.02,0-.04.01-.06-.01-.08-.02-.18,0-.35Z"/>
          <path class="cls-5" d="m193.67,101.44s.01-.08.02-.11c0-.06,0-.13,0-.19v.31Z"/>
          <path class="cls-5" d="m212.26,40.32c.12-.06.21-.08.28-.1-.11,0,.62-.53-.28.1Z"/>
          <path class="cls-5" d="m235.03,53.03s.04.09.04.18c0-.07,0-.14-.01-.2-.01-.02-.03-.02-.03.02Z"/>
          <path class="cls-5" d="m194.36,95.57v.97c0-.27,0-.62,0-.97Z"/>
          <path class="cls-5" d="m182.29,72.06l.1-.2c-.05.07-.08.14-.1.2Z"/>
          <path class="cls-5" d="m194.36,99.43c-.03.17-.05.36-.06.55,0,.04.01.09.02.11l.04-.66Z"/>
          <path class="cls-5" d="m212.53,40.22h0s0,0,0,0Z"/>
          <path class="cls-5" d="m218.26,37.02c-.5.03-.62.08-.63.13-.01.04.07.07-.03.12-.59.11-.73.24-.78.21-.05-.01-.02-.08-.23,0-.57.39-.97.76-1.41,1.04-.04,0-.13.05-.04-.03-.57.47-1.84,1.15-2.5,1.71-.06.03-.09.04-.11.04.14-.03.19,0,.19.06-.34.24-.59.5-.76.53.21-.14.21-.18.3-.27l-.34.28c-.38.14.47-.37.42-.44-.68.51-1.44,1.15-1.99,1.5-.17,0,1.23-.9.46-.48l.85-.54c-.73.3.51-.34-.17-.08-1.11.73-1.19.89-2.29,1.62-.21.22.13.01-.08.23-1.44,1.21-1.34.69-2.35,1.64-.24.27-.27.46-1.09,1.01l.19-.3c-1.03.78-.48.57-1.56,1.38.15-.19.75-.68.59-.57-.72.49-.43.45-.94.88h-.17c-1.03.92-2.16,1.91-3.23,2.98.04-.08.21-.28-.07-.06-.68.67-1.43,1.37-2.18,2.04-.73.7-1.45,1.4-2.11,2.04l-.43.57c-.11.12-.24.19-.13.05-.53.49.02.07-.2.34-.28.3-.41.35-.25.15-.82.97-2.28,2.81-3.24,3.74l.15-.21c-.72.76-.6,1.02-1.28,1.72l.1-.15c-.72.87-1.46,1.8-2.15,2.68-.66.91-1.29,1.75-1.85,2.41-.1.33-1.35,1.78-1.26,2.02-.78,1.03-.61.7-1.65,2.19-.27.4-.31.66-.6,1.18l-.09-.04-.33.75-.32.31-.26.5c.12-.19.28-.39.28-.35-.41.78-1.14,1.81-1.2,1.81-.34.6-.64,1.23-.94,1.86-.01-.06.14-.37.25-.63-.43,1.03-.18.13-.58,1.07.08-.11.02.09.02.12-.29.42-.82,1.44-1.2,2.21l.02-.17c-.72,1.37-1.36,2.96-2.1,4.52.29-.55.33-.37.13.09l-.18.14c-.08.32.26-.47.04.17-.25.59-.27.36-.16,0l-.26.74s0-.15,0-.21c-.06.32-.6,1.22-.68,1.69l-.04.03c-.66,1.6-.92,2.34-1.36,3.68.07.06-.13.57-.2.99-.37.97-.83,2.02-1.16,3.23-.21.85,0,.27-.07.66-.09.04-.44,1.24-.31.6-.41,1.44-.55,1.83-.96,3.68.08-.19.15-.41.15-.29-.07.34-.22.75-.25.69v-.09c-.4,2.08-1.31,4.73-1.43,6.44v-.09s-.2,1.74-.2,1.74c-.14.8.02-.49-.12.09-.08.95-.19,1.68-.3,2.38-.05.35-.09.69-.14,1.04-.02.18-.04.36-.06.55-.05.15.05.33.09.42.05.11.11.21.19.3.16.34.62.75,1.28.78.5.01,1.03,0,1.6,0,1.12-.01,2.29-.04,3.1.03l-.09-.05c.42-.05.51.03.82.04-.04-.04-.46-.05-.19-.08,3.55-.07,7.33.08,10.98.13,1.33.01.76-.28,2.44-.15l-.48.1c.67-.03,1.35-.05,2.03-.05h1.03c.3,0,.8.01,1.18-.21.39-.2.69-.55.84-.96.08-.2.11-.42.11-.64v-.51c0-.68-.02-1.34-.04-2,.02.16.05.16.05.42.07-.56,0-2.06-.06-2.07,0-.41.05-.1.09-.35.04-.56-.09-1.4-.02-1.7.01-.05.02.16.03.26-.04-.36,0-1.69-.08-1.35.04-.99-.04-1.89.01-2.68-.1-.51.05-1.69-.09-1.85.14.07.11-1.73.05-2.36.04.21.04-.54.1-.3,0-.71-.03-1.37-.1-1.24.08-.66.05-1.32.02-1.9-.02-.33-.02-.47.07-.66.08-.17.22-.28.35-.31.14-.12.32-.18.5-.2.26,0,.51-.02.76-.03.51-.01,1.01-.03,1.51-.04.99-.02,1.96-.04,2.91-.06-.07.14-2.11.01-2.02.16,1.81-.06,2.85-.18,4.64-.14.46.02-.26.06-.42.08,1.81-.06,3.49.01,5.1-.06,0,.01-.18.03-.34.04.32,0,.74.02.7-.04l-.31.02c-.51-.09,1.26-.19,1.31-.24-.54.18,1.59.05.73.27.21-.01.47-.04.42-.08.31.01.41.04.09.08,1.13-.03.73-.1,1.76-.1,0,.03-.21.04-.32.08.27-.04.49-.03.87-.11.34-.09.73-.3,1.01-.73-.02.06.08-.02-.11.23.3-.33.39-.81.35-1.15-.02-.33-.03-.66-.05-.98-.03-.65-.05-1.33-.03-2.14.13.48.04-.56.16-.64l-.03-.88-.06.35c0-.77-.08-1.45-.04-2.11l.05.57-.02-1.44-.04.82c-.06-.78-.15.08-.11-.94.01.21,0-.77.07-1.17h0c-.04-.38-.08-.77-.05-1.34.04-.15.13.12.15.02-.1-.38-.03-1.8-.13-2.28.02.16.08.17.1.11l-.08-.32c.02-.36.04-.41.09-.35.01-1.07-.15.34-.08-.93,0,.1.02.05.03.26.03-1.28-.05-2.47-.01-3.65.12-.35.03,1.03.13.63,0-.21,0-.43-.01-.64,0-.23-.02-.42.02-.59.07-.35.33-.66.68-.79.32-.11.82-.06,1.23-.09.43,0,.85,0,1.26,0h-.31c.23-.18,1.22.07,2.05,0-.2.01-.27.09-.21.07,1.12.03,2.3-.04,4-.09l-.21.04c.66.04,1.74.02,2.46.04.21-.04.62-.04.37-.1,2.21.24,4.21-.13,6.16.07-.23,0-.56.04-.37.04l1.67-.04c-.13-.07-.22-.04-.57-.1.21-.04.68-.07,1.09-.07-.75.05,0,.11.33.15-.05-.02.06-.05.03-.07.44.06.47.03.55-.01.04-.02.09-.04.2-.05.11-.02.3.02.59-.09l-.05.06c.46-.21.62-.71.55-1.17.08-.21.07.47.08.54.07-.75-.18-1.34-.09-1.97.02.29.06.69.08.98.07-.67.05-.74.04-1.24v.05s0-1.14,0-1.14l-.02.29c-.24-.84-.1-1.71-.28-2.85.17,1.1.08.18.18.26.02-.29.03-.73.06-.61-.09-.53.03-.9-.11-1.65.03-.03-.02-.57.06-.46-.05-.7-.05.17-.09.11-.14-1.07.04-2.53-.16-4.07-.1-1.33-.21-1.58-.31-2.81.03-.42.12.34.12.34.02-.68,0-1.18-.06-1.82.03.13.05,0,.08-.2-.03-.51-.12-.34-.1-1.01.04.11.1.26.14.51-.06-.59-.11-1.2-.17-1.81.05-.17.09.37.13.59-.05-.7-.11-1.81-.2-2.02v.45c-.03-.25.05-.13.07.06.09.6,0,.86-.03.9l-.03-.44c-.16.46.09,1.78.11,2.67l-.14-.37.14.91c-.03.2-.09.33-.13-.11-.04.64.07.56.01,1.12,0,.06-.02.03-.02-.02l.06.62c-.03-.12-.09.11-.08-.28-.04,1.12.16,1.81.08,2.23v-.09c.09,1.55.09.15.24,1.31l-.2.79.1.15c0,.16,0,.48-.03.42.08.6.04-.1.11.24-.06.77.11,2.13-.03,2.31.08.27.03-.74.11.08-.15.24.06.95.01,1.66-.09-.21-.07-.88-.12-.18.16.42.02,1.37.06,1.97.11.02.09,1.29.16,2.29-.02-.03-.02.44-.01,1.03-.01.3.05.64-.08.85-.11.23-.34.36-.53.38l.02-.02c-.04.08-.31.11-.67.12-.35,0-.76.02-1.11.02.03-.07.15-.09.53-.12h-.66c-.15.04-.36.06-.79.07l.17-.08c-.87,0-1.76.1-2.88.04-.06.08.89.22-.29.27-.04-.04-.09-.12.22-.13-.1,0-.36.04-.57.02l.47-.07c-.51-.03-.27.06-.68.05,0-.06-.3-.04-.24-.09.1,0,.36.03.51,0-.46-.01-1.02-.05-1.2-.09.04.03,0,.08-.34.09-.87,0-.3-.07-.81-.1-.21.04-.77,0-.78.09-.26,0-.3-.04-.4-.07-.45.04-2.11.01-1.6.11h.12s-.05,0-.07.01h0,0c-1.48.09-3.08-.05-4.55-.01v-.03c-.88.03-1.95.02-2.58.09-.26,0-.61-.06-.5-.09-.33.01-.52.02-.75.03-.21.02-.52-.07-1.02.18.33-.2.28-.16.24-.16-.03.03-.03-.05.5-.08-.5,0-.81.17-1.05.38-.23.22-.45.54-.44,1.08-.07-.33-.1.68-.08,1.08l.06-.61c.01.47,0,.87,0,1.29l-.1-.22c-.12,1.78.21,3.22,0,4.57.07.47.05-.97.13-.55-.01.82-.16,1.68-.16,1.93-.06,1.12.15,1.05.11,2.22.04-.15.13-.29.17.59-.01.82-.15,1.01-.18.49,0-.2,0-.29.02-.28-.01-.27-.03-.61-.07-.29l.04.11c-.04.41-.03,1.54-.09,1.27.03.62.06.27.08-.19-.05,1.05,0,1.65-.04,2.73.02-.17.06-.33.06-.16-.05,1.59.07.7.09,1.78-.06.61-.13-.22-.09.87-.04.66-.1.14-.13-.12.02.25.02.49.02.71,0,.11,0,.23,0,.33,0,.09-.02.16-.04.23-.09.28-.3.45-.46.54.09-.07.17-.16.23-.25-.11.18-.26.27-.42.33.07,0,.14,0,.22-.02-.2.11-.38.11-.38.09-.11.03-.07.06-.05.09.01.03.03.07-.29.1-.41-.04-1.24.04-1.38-.06,1.28.03-.14-.1.94-.11-.21.01-.46.01-.77,0-.05-.01.04-.02.13-.03-1.23-.09-.56.11-1.83.11.16-.05-.29-.1-.5-.09.51,0,.24.09-.22.13-.81-.04-.89.03-1.31.03l.49.02c-.17.05-.57.05-1.14.06-.05-.04.52-.03.31-.05-.63.1-1.42-.1-2.3-.03-.41-.04-.04-.1-.4-.13-.99.07-1.07-.07-2.1-.02.3.07.35.06-.38.13l1.7-.05-1.09.11c.51,0,1.08-.05,1.39-.03-.52.06-.47.04-.22.1-.7-.11-1.39.06-2.21-.01l.02-.18c-1.22-.08-2.17.09-3.76.05l.51.03c-.21.07-.98.01-1.49.04.05-.06-.27-.08-.49-.12.01.02-.28.02-.59.03-.33-.02-.76.14-.79.24-.26.09-.5.26-.68.49-.22.32-.27.66-.26.91.01.22.04.4.06.58.04.36.09.71.08,1.33-.07-.37-.11.19-.16-.64,0,.41-.01.78.03.79-.04.24.08,1.14.02,1.52.03.17.09.23.09.69-.01.05-.03,0-.03,0,.03,0,.04.72.11.32-.19,1.27.01,3.54-.15,4.64.01.9.03,1.98.04,2.79-.02-.05-.03,0-.02-.16-.06,1.12.17.69.11,1.97-.1.65-.05-.68-.09-.27-.2.18.03,1.54-.09,2.4v-.21c-.05.33-.03.73,0,1.18,0,.45.13,1-.05,1.39,0,0,0-.05-.03-.02-.06.29-.39.71-.91.79-.54.04-1.17.04-1.68.06.32-.08.47-.04.27-.12-.46.01.14.13-.79.15-.3-.04-.97-.08-1.06-.16h.87c-.45-.11-1.13,0-1.59-.02l.06-.05c-1.34.02-1.36.14-2.79.13l.15.04c-.79.12-.66-.07-1.44.02l-.24-.12c-.52.03-1.82.12-2.75.14.53-.09,1.61-.14,2.29-.19-.51,0-1.75,0-2.01.07.21-.01.47-.04.67-.02-.63.1-1.46.14-2.48.14.18-.24-2.67-.06-3.41-.24-1.81.09-3.59-.04-5.7-.02.37.09.22.09-.01.09-.2.01-.42-.07-.41.03-.41-.15-.48-.34-.5-.36-.06-.09-.1-.19-.14-.29-.04-.11-.02-.11,0-.26l.14-.73c.1-.34-.02.47.03.43.14-1.06.13-.44.27-1.13-.09.14-.05-.38.06-.98l-.2.84c.11-1.5.33-1.26.47-2.76l-.02.48c.08-.77.48-2.81.49-3.59.05-.13.13-.3.08.04.38-1.81.72-4.06,1.18-5.43v.15c.08-.34.08-.6.24-1.01.01.03,0,.15.05,0,.03-.18.18-.9.34-1.33l-.06.39c.58-1.71.65-2.7,1.08-4.15.13.05.64-1.28.89-1.94v.03c.69-1.99,1.14-3.39,1.83-5.21.54-1.08,1.73-3.71,2.61-5.45-.14.26-.08-.1.07-.4.24-.39.5-1.16.58-1.04l-.08.14c.27-.25.67-1.09,1.02-1.74l-.09-.18c.53-.8,1.15-1.89,1.71-2.89.56-1,1.06-1.91,1.42-2.3.24-.41.51-.89.75-1.29l.06.07c.71-1.07,1.06-1.59,1.94-2.91l-.14.3c.53-.72.46-1.06.94-1.73l.25-.12c.47-.62.94-1.25,1.41-1.87.49-.6.98-1.21,1.42-1.85,0,.03,0,.09-.15.29.46-.57,1.84-2.15,1.54-2.06.09.05,1.07-1.2,1.59-1.87l-.02.15c.39-.6.38-.64,1.02-1.41.16-.17.19-.11-.04.11.56-.55.33-.52,1.03-1.17l-.21.29c.57-.57.5-.55.76-.91.33-.39,1.08-1.08,1.22-1.11.04-.11.31-.47.65-.8.07-.03-.04.11-.1.18.98-.92,1.38-1.45,2.11-2.04.03,0,.09-.02.15-.07-.78.73-1.42,1.31-1.36,1.26.06.06.7-.52.27.02.46-.52,1.24-1.42,1.88-1.97.04-.02.07-.04.1-.06l-.06.07c.15-.13.27-.25.38-.37.2-.18.33-.29.53-.46.12-.02.78-.61,1.11-.89-.08-.04.36-.4-.09-.11.06-.04-.06.06-.27.25-.05.04-.1.09-.13.13l.02-.02c-.21.19-.49.43-.81.7.22-.26.48-.51.87-.79.14-.19.29-.39.37-.5.53-.29,1.44-.98,1.61-1.02.95-.92,2.42-1.94,2.96-2.59.28-.25.37-.23.5-.29-.16.14-.37.3-.45.39.57-.49,1.74-1.37,1.84-1.55.81-.5-.37.39.68-.37l-.12.13c1.1-.65,1.91-1.3,2.75-1.97.86-.64,1.78-1.27,3.04-1.92-.17.09-.26.14-.3.14.71-.37,1.36-.95,2.11-1.06.78-.13,1.61-.06,2.42.04,1.63.22,3.23.65,4.73,1.17.86.29.97.25,1.52.36l.17.14.94.14c1.31.28,2.19.79,3.78,1.28l-.17-.14c.28.12.71.31,1.05.5.33.2.57.38.51.38.06.02.19.07.35.25l-.02.05c.37.3.69.67.92,1.1.23.52.12.51.1.54-.05.04-.01.11.13.91.13.59.28,1.74.3,1.5,0-.25,0-.64.05-.67l.05.57c.14.1.33.56.33-.9-.06-.34-.14-.67-.25-1,0-.11,0-.23-.01-.34.08.28.13.57.19.85-.02-.5-.15-.8-.3-1.12,0-.09,0-.24-.09-.44-.18-.31-.41-.58-.65-.83-.04-.13.39.3-.05-.27-.37-.32.22.43-.35-.14-.34-.36-.18-.35-.7-.62-.05-.08.07-.03.27.09-.45-.29-1.2-.68-1.47-.7-.43-.29-1.59-.57-1.51-.68-.16-.02-.87-.15-1.31-.27.85.06-1.64-.45-1.38-.56-.63.01-2.11-.56-3.19-.77.06,0,.18.01.27.05-.59-.18-.75-.27-1.12-.39-.11.09-1.04-.11-1.56-.14-.71-.27.48-.04.27-.2.02.09-1.31-.17-1.07-.03-.56-.17-.49-.11-.77-.26-.12.13-.55-.04-1.04.01-.86-.08-.21-.18-1.18-.07-.47,0,.4-.13.4-.13Zm-17.69,12.66h0c.13-.13.25-.24.32-.31-.07.06-.16.15-.32.31Zm-1.33,1.24c.16-.15.37-.34.58-.54.07-.02.04.05-.1.17.06-.08-.27.2-.48.37Zm3.23-2.16c-.21.19-.29.24-.34.26.1-.09.22-.19.38-.33l.02-.03s-.02.06-.06.11Z"/>
          <path class="cls-5" d="m202.79,48.34s.05-.04.09-.08c-.05.03-.1.06-.14.1l-.06.09s.08-.07.12-.1Z"/>
          <path class="cls-5" d="m223.53,70.51h-.04s.06,0,.08.01c-.02,0-.03,0-.04-.01Z"/>
          <polygon class="cls-5" points="183.28 70.29 183.3 70.3 183.37 70.15 183.28 70.29"/>
          <path class="cls-5" d="m233.53,70.81s.06.02.13.02c0,0-.06-.01-.13-.02Z"/>
          <path class="cls-5" d="m235.51,67.78v-.61c0,.27,0,.46,0,.61Z"/>
          <path class="cls-5" d="m235.44,64.45s-.03-.05-.04-.06h0s.04.06.04.06Z"/>
          <path class="cls-5" d="m207.34,91.1s-.09,0-.13,0c-.3.02-.1.01.13,0Z"/>
          <path class="cls-5" d="m213.75,80.75c.01.17.03.33.04.51,0-.28,0-.5-.04-.51Z"/>
          <polygon class="cls-5" points="194.36 95.46 194.36 95.46 194.36 95.57 194.36 95.46"/>
          <path class="cls-5" d="m213.79,81.99c.02-.28.01-.51,0-.73,0,.23-.01.5,0,.73Z"/>
          <path class="cls-5" d="m234.98,50.06v-.16s-.01,0-.02-.02l.02.18Z"/>
          <path class="cls-5" d="m234.97,49.88l-.02-.18c0,.08,0,.15.02.18Z"/>
          <path class="cls-5" d="m234.92,49.33l.03.37c0-.13,0-.29-.03-.37Z"/>
          <path class="cls-5" d="m235.1,54.46l.03.05s-.02-.04-.03-.05Z"/>
          <path class="cls-5" d="m235.15,55.79c0-.32.04-.8,0-1.25l-.03-.04c.05.21-.04.98.02,1.29Z"/>
          <path class="cls-5" d="m234.96,61.38v-1.12c-.04.2-.08.46-.1-.05-.05,1.41.06-.29.1,1.17Z"/>
          <path class="cls-5" d="m235.03,64.85c-.04-.6-.05,0-.07-.02.04.38.05.47.07.02Z"/>
          <path class="cls-5" d="m215.69,70.44l.06-.08c-.46.01,0,.03-.06.08Z"/>
          <polygon class="cls-5" points="213.83 73.93 213.88 73.47 213.81 73.26 213.83 73.93"/>
          <polygon class="cls-5" points="213.27 76.76 213.26 76.56 213.29 77.33 213.27 76.76"/>
          <path class="cls-5" d="m193.6,100.35l.1-.14c-.02-.31-.13-.38-.1.14Z"/>
          <path class="cls-5" d="m186.12,111.13c-.2-.05-.71-.08-1.03-.03.41,0,.82.04,1.03.03Z"/>
          <polygon class="cls-5" points="181.52 74.85 181.38 75.19 181.68 74.57 181.52 74.85"/>
        </g>
      </g>
    </g>
    <g>
      <path class="cls-5" d="m362.06,101.79c-4.52-21.72-15.81-40.37-32.13-54.17-.3-.25-.73.04-.62.41,2.03,6.51,3.35,13.01,3.35,19.92,0,8.47-1.25,16.71-4.35,23.36-.23.5.12,1.06.67,1.06l9.65-.44c.71,0,1.28.58,1.28,1.28v16.22c0,.69.56,1.25,1.25,1.25h22.17c.05-.06.07-.08.12-.14-.34-2.97-.79-5.87-1.41-8.75Z"/>
      <g>
        <path class="cls-4" d="m362.06,101.79c-4.52-21.72-15.81-40.37-32.13-54.17-.3-.25-.73.04-.62.41,2.03,6.51,3.35,13.01,3.35,19.92,0,8.47-1.25,16.71-4.35,23.36-.23.5.12,1.06.67,1.06l9.65-.44c.71,0,1.28.58,1.28,1.28v16.22c0,.69.56,1.25,1.25,1.25h22.17c.05-.06.07-.08.12-.14-.34-2.97-.79-5.87-1.41-8.75Z"/>
        <g>
          <path class="cls-5" d="m362.26,101.75c-.04-.08-.09-.02-.03.22l.14.15-.11-.37Z"/>
          <path class="cls-5" d="m362.41,103.43c.1.28.25.6.31.39-.15-.27-.12-.35-.3-.63-.06-.24-.05-.43,0-.4-.04-.08-.05-.39-.14-.5-.01.33.07.74.21,1.15,0,.09-.05.01-.07,0Z"/>
          <path class="cls-5" d="m346.33,110.54h.16s-.1,0-.16,0Z"/>
          <path class="cls-5" d="m340.11,101.44c0,.12.01.16.02.17,0-.11-.01-.19-.02-.17Z"/>
          <path class="cls-5" d="m340.23,98.86c0,.06,0,.1,0,.15,0-.06.01-.12,0-.15Z"/>
          <path class="cls-5" d="m346.33,110.54l-.4-.03s.21.02.4.03Z"/>
          <path class="cls-5" d="m363.22,106.71c-.02-.08-.04-.15-.06-.21l.04.2h.02Z"/>
          <path class="cls-5" d="m352.99,110.45h.12s.07-.03.1-.04l-.22.04Z"/>
          <path class="cls-5" d="m358.1,110.44c-.12,0-.16.08-.2.12.07-.04.15-.05.25-.06,0-.02-.01-.04-.05-.06Z"/>
          <path class="cls-5" d="m363.04,107.9l-.03-.14s.02.1.03.14Z"/>
          <path class="cls-5" d="m349.33,110.44s-.03-.02-.05-.03c0,.01.02.02.05.03Z"/>
          <path class="cls-5" d="m361.05,95.93s0,0-.01,0c.02.03.02.03.01,0Z"/>
          <path class="cls-5" d="m362.04,101.8l-.02-.08s-.04-.01-.05,0l.07.09Z"/>
          <path class="cls-5" d="m340.34,94.14s0,.01,0,.02c0,.12,0,.05,0-.02Z"/>
          <path class="cls-5" d="m332.76,62.62c-.03.5-.18-.79-.19-.04.03-.07.2.66.19.04Z"/>
          <path class="cls-5" d="m363.23,106.84l.03.21c-.01-.09-.02-.16-.03-.21Z"/>
          <path class="cls-5" d="m332.57,62.58h0s0,.08,0,.08c0-.03,0-.05,0-.08Z"/>
          <path class="cls-5" d="m330.7,91.92s.07.02.11.03c0,0-.03-.02-.11-.03Z"/>
          <path class="cls-5" d="m338.84,91.7c-.07-.02-.17-.02-.24-.03.08,0,.18.01.24.03Z"/>
          <path class="cls-5" d="m328.94,90.5c.05-.1.08-.13.13-.27l-.03.04c-.01.05-.04.12-.1.23Z"/>
          <path class="cls-5" d="m330.46,86.37l-.04.07s-.03.09-.04.13l.08-.21Z"/>
          <path class="cls-5" d="m356.67,83.32c.01.1.01.16,0,.22.03-.09.3.5,0-.22Z"/>
          <path class="cls-5" d="m363.17,106.72s.04.06.06.12l-.03-.14s-.03-.01-.03.02Z"/>
          <path class="cls-5" d="m328.39,90.07c.1-.21.18-.42.27-.63-.08.18-.18.41-.27.63Z"/>
          <path class="cls-5" d="m339.86,56.81l.11.11s-.08-.09-.11-.11Z"/>
          <path class="cls-5" d="m329.36,87.52c.07-.11.13-.22.18-.35,0-.03,0-.06,0-.08-.06.15-.12.29-.19.43Z"/>
          <path class="cls-5" d="m356.68,83.54h0s0,0,0,0Z"/>
          <path class="cls-5" d="m358.55,87.75c-.23-.63-.21-.26-.32-.37-.3-.73-.05-.37-.09-.65-.2-.46-.42-.78-.56-1.12,0-.03-.01-.1.04-.03-.28-.45-.6-1.44-.94-1.96,0-.05,0-.07,0-.08-.01.11-.06.15-.11.15-.12-.27-.28-.48-.25-.62.07.17.1.17.15.24l-.15-.28c0-.3.2.38.27.35-.26-.55-.61-1.17-.79-1.6.06-.13.48.98.31.37l.24.68c-.06-.58.16.41.13-.13-.33-.89-.48-.95-.85-1.83-.14-.17-.05.1-.19-.07-.66-1.18-.21-1.07-.75-1.92-.17-.2-.33-.24-.59-.89l.22.16c-.41-.82-.39-.39-.76-1.28.12.13.37.63.31.5-.2-.6-.26-.36-.48-.79l.05-.14c-.45-.87-1.03-1.79-1.59-2.71.06.04.18.18.08-.05-.71-1.17-1.43-2.55-2.1-3.69l-.34-.38c-.06-.1-.08-.21,0-.11-.24-.46-.06,0-.22-.18-.16-.24-.16-.36-.04-.21-.52-.74-1.56-2.07-2.02-2.91l.13.14c-.39-.64-.63-.59-.95-1.21l.09.1c-.92-1.33-2.05-2.71-2.7-3.77-.25-.1-.97-1.28-1.17-1.24-.51-.77-.32-.59-1.1-1.64-.22-.27-.43-.31-.73-.62l.06-.07-.46-.37-.12-.31-.29-.29c.1.12.19.28.16.28-.45-.44-.97-1.19-.94-1.24-.34-.36-.72-.69-1.08-1.03.05,0,.23.17.39.29-.62-.51-.03-.17-.6-.64.05.09-.08,0-.1,0-.21-.3-.78-.9-1.22-1.32l.13.04c-.74-.82-1.69-1.6-2.58-2.47.3.33.15.34-.12.1l-.04-.17c-.21-.12.25.29-.15.01-.33-.33-.15-.3.07-.14l-.43-.36s.1.03.15.03c-.2-.12-.64-.74-.97-.87v-.04c-.95-.81-1.37-1.17-2.14-1.83-.04.02-.15-.06-.3-.17-.19-.13-.43-.22-.66-.13-.24.04-.48.24-.53.5-.03.12-.03.25,0,.41l.11.42c.1.4.21.81.34,1.23.22.59.12.15.25.41-.06.07.18.92,0,.49.3,1.02.38,1.29.77,2.6,0-.15-.03-.31.02-.24.07.23.1.55.05.52l-.02-.06c.48,1.44.53,3.45.89,4.6l-.02-.07.29,1.22c.07.57-.11-.33-.1.1.33,1.31.27,2.1.47,3.19-.14.87.25,3.03.12,4.19l.05-.07c.06.3-.03.36-.04.58.04-.03.05-.32.08-.14.1,2.53-.14,5.23-.43,7.8-.1.94.24.57-.03,1.74l-.06-.35c-.09,1.92-.53,3.88-.81,5.73,0-.11-.03-.12.01-.3-.16.37-.31,1.43-.26,1.45-.08.28-.07.05-.14.22-.14.37-.15.99-.27,1.17-.02.03,0-.11.02-.19-.03.26-.33,1.15-.18.94-.22.67-.36,1.3-.57,1.81-.02.38-.44,1.12-.35,1.27-.1-.09-.55,1.1-.66,1.54.02-.15-.2.34-.18.15-.2.46-.37.9-.26.85-.12.13-.32.57-.21.9.08.35.34.62.63.73.15.06.29.09.44.08.1,0,.2,0,.29-.01.18,0,.34.01.47.06,1.51-.14,2.91-.26,4.28-.35-.05.14-1.51.08-1.44.23,1.29-.12,2.04-.27,3.32-.29.33,0-.19.07-.3.1.65-.06,1.27-.08,1.88-.11.3-.02.6-.03.9-.05.33-.03.49-.03.72.05,0,0-.1-.02-.19-.03.17.03.33.19.36.13-.05-.03-.1-.06-.15-.08-.11-.1.08-.09.29.04.22.12.38.39.4.4-.15-.13-.04.11-.05.33,0,.22-.04.47-.15.16.01.15.04.34.08.3-.01.22-.04.29-.08.07.03.81.1.52.1,1.26-.03,0-.04-.15-.08-.23.06.37.12.75.09,1.37-.02-.04-.04.03-.04-.15,0,1.07.16,1.82.1,2.99-.13-.35-.04.4-.16.46l.03.63.06-.25c0,.55.08,1.04.04,1.51l-.05-.41.02,1.03.04-.59c.06.56.15-.06.11.67-.01-.15,0,.55-.07.84h0c.04.27.08.55.05.96-.04.11-.13-.09-.15-.02.1.27.03,1.29.13,1.63-.02-.11-.08-.12-.1-.08l.08.23c-.02.26-.04.29-.09.25-.01.77.15-.24.08.67,0-.07-.02-.04-.03-.19-.03.92.05,1.77.01,2.61-.12.25-.03-.74-.13-.45,0,.3.02.61.03.92,0,.34.12.73.37,1,.24.27.57.45.92.49.35.03.62,0,.93.01h-.22c.16-.18.88.07,1.47,0-.15.01-.19.09-.15.07.81.03,1.65-.04,2.87-.09l-.15.04c.47.04,1.25.02,1.76.04.15-.04.45-.04.27-.1,1.58.24,3.01-.13,4.42.07-.17,0-.4.04-.27.04l1.19-.04c-.09-.07-.16-.04-.41-.1.15-.04.49-.07.78-.07-.54.05,0,.11.24.15-.04-.02.04-.05.02-.07.62.13.1-.14.96-.06l-.05.04c.32-.02.61-.07.96-.06.14.08-.34.04-.36.11.48,0,.95-.16,1.39-.07-.21.01-.49.03-.7.05.48.1.53.07.88.09h-.03s.82.04.82.04l-.21-.03c.6-.21,1.23-.04,2.04-.18-.79.13-.13.08-.19.17.21.03.52.05.43.08.38-.08.64.06,1.18-.05.02.03.41,0,.32.08.5-.02-.12-.05-.08-.09.39-.05.84-.02,1.33,0,.26,0,.45.04.89.01.08-.03.18,0,.24-.08.04-.08.16-.13.14-.23.03-.16-.02-.39-.06-.55-.17-.94-.3-1.11-.46-1.98,0-.3.14.23.14.23-.02-.49-.08-.84-.18-1.29.04.09.05,0,.06-.15-.06-.36-.15-.23-.18-.71.05.08.12.17.18.34-.1-.41-.21-.84-.32-1.27.03-.13.12.25.18.4-.1-.49-.27-1.27-.38-1.41l.03.32c-.04-.18.05-.11.09.03.14.41.08.62.05.64l-.07-.31c-.12.35.24,1.25.33,1.89l-.17-.24.2.63c-.01.14-.07.25-.13-.06,0,.46.1.39.09.79,0,.04-.01.03-.02-.01l.1.44c-.04-.08-.08.09-.1-.19.04.8.26,1.27.2,1.58l-.02-.07c.15,1.1.16.05.26.95l-.14.07c-.06,0-.12-.04-.17-.05-.11-.04-.19-.08-.26-.12l-.11.09c-.12,0-.34-.01-.3-.05-.43.06.07.04-.18.1-.55-.09-1.53.04-1.65-.11-.2.07.53.06-.06.1-.17-.16-.68.03-1.19-.05.16-.08.63-.04.13-.11-.31.14-.98-.03-1.41,0-.02.11-.93.05-1.64.08.05-.04-1.35-.06-2.01-.1l.02-.02c-.13.11-.82.09-1.32.12.02-.07.11-.09.38-.12h-.47c-.11.04-.26.06-.56.07l.12-.08c-.63,0-1.26.1-2.06.04-.05.08.64.22-.21.27-.03-.04-.06-.12.16-.13-.07,0-.26.04-.41.02l.34-.07c-.37-.03-.19.06-.48.05,0-.06-.22-.04-.17-.09.07,0,.26.03.37,0-.33-.01-.73-.05-.86-.09.03.03,0,.08-.24.09-.63,0-.21-.07-.58-.1-.15.04-.55,0-.56.09-.18,0-.22-.04-.29-.07-.32.04-1.51.01-1.15.11h.08s-.03,0-.05.01h0,0c-1.06.09-2.2-.05-3.26-.01v-.03c-.63.03-1.4.02-1.85.09-.19,0-.43-.06-.35-.1-.21,0-.33-.04-.46-.1-.12-.07-.28-.17-.42-.44.29.3-.08-.11.31.29-.2-.18-.26-.33-.31-.48-.06-.16-.07-.29-.11-.64.08.23.1-.47.07-.77l-.06.44c-.01-.33,0-.63,0-.92l.1.16c.12-1.28-.21-2.3,0-3.28-.07-.34-.05.69-.13.39.01-.59.16-1.2.16-1.38.06-.81-.15-.75-.11-1.59-.04.11-.13.21-.17-.42.01-.59.15-.72.18-.35,0,.14,0,.21-.02.2.01.19.03.44.07.21l-.04-.08c.04-.29.03-1.1.09-.91-.03-.44-.06-.19-.08.14.05-.75,0-1.18.04-1.95-.02.12-.06.24-.06.11.05-1.14-.07-.5-.09-1.27.06-.44.13.16.09-.62.04-.47.1-.1.13.09-.07-.71.05-1.32.06-1.73l.03.37c-.02-.22-.02-.41-.02-.59l-.07.21c.01-.22.01-.4.04-.4-.05-.23-.12.17-.19-.27.04-.29-.04-.89.06-.99-.03.92.1-.1.11.68-.01-.15-.01-.33,0-.55.01-.03.02.03.03.09.04-.44.02-.54-.02-.64-.06-.11-.03-.18-.16-.76.1.13.02-.3-.11-.45.22.43.05.21-.23-.08-.22-.28-.41-.37-.55-.42-.14-.05-.25-.07-.43-.09.14.02.27.07.39.13-.13-.01-.51-.12-.9-.05-.04-.04.37-.05.22-.06-.45.12-1.02-.05-1.65.04-.29-.02-.03-.1-.29-.11-.7.1-.77-.04-1.51.05.22.06.25.04-.27.14l1.22-.11-.78.14c.37-.02.77-.08,1-.08-.37.08-.33.06-.16.11-.51-.09-1,.11-1.58.06v-.18c-.86-.04-1.54.16-2.67.17h.37c-.15.09-.7.06-1.07.1.03-.06-.2-.07-.36-.1.02.04-.83.03-.93.16l-.51-.06c-.51.02-.57.04-.76-.06-.14-.09-.33-.31-.15-.66-.02.13.02.1.04.12.03.01,0,.06.04.23-.01-.09.01-.17.04-.23.03-.08.06-.16.04-.17.1-.14.26-.79.42-1.01.03-.12-.02-.19.11-.49.02-.03.03.01.03.01-.03-.01.15-.5-.02-.25.54-.77.87-2.39,1.25-3.1.17-.62.36-1.38.51-1.94,0,.04.03,0,0,.12.25-.77-.05-.52.23-1.4.2-.43-.06.49.04.21.23-.08.22-1.09.46-1.67l-.02.15c.15-.45.15-1.15.29-1.91,0,0,.01.04.03,0-.01-.54.11-1.53.18-2.27.05.24,0,.34.09.21.03-.33-.14.08-.07-.58.07-.21.16-.68.25-.73l-.07.62c.15-.31.09-.81.14-1.13l.04.05c.09-.96-.04-.98.06-2.01l-.04.1c-.08-.57.1-.47.05-1.03l.13-.16c0-.37-.05-1.31-.04-1.97.07.38.08,1.16.11,1.65.02-.37.05-1.25,0-1.45,0,.15.03.34,0,.48-.07-.46-.1-1.05-.08-1.79.24.14.1-1.91.27-2.45-.09-1.3-.03-2.59-.16-4.11-.14.55-.04-.44-.22-.33-.04-.35-.05-.48-.04-.52v-1.08c.03-.26.08.33.12.29-.07-.77.04-.33.03-.85-.05.11-.13-.26-.16-.7v.63c-.24-1.06.02-.95-.23-2.02l.11.33c-.11-.55-.34-2.04-.6-2.55,0-.1.03-.24.09,0-.23-1.32-.78-2.88-.94-3.91l.07.09c-.08-.24-.19-.4-.23-.71.02.01.07.09.04-.03-.05-.12-.24-.62-.31-.95l.12.26c-.29-1.27-.66-1.89-1.01-2.93.03,0,.04-.1.04-.17,0-.03.02-.07.03-.12.02-.08.14-.07.16-.02v.02s.01.02.01.02c.22.19.42.36.62.52.24.19.48.38.71.57.47.37.94.74,1.45,1.14.52.71,2.09,2.06,3.02,3.1-.13-.17.1-.05.28.12.21.25.69.59.57.63l-.08-.09c.08.26.57.72.93,1.1l.18-.05c.8,1.12,2.47,2.62,2.82,3.3.25.22.53.52.76.76l-.08.04c.56.72.84,1.09,1.57,1.95l-.19-.14c.4.5.71.47,1.08.93v.22c.67.89,1.26,1.86,2.01,2.68-.03,0-.08,0-.19-.15.33.41,1.09,1.71,1.13,1.45-.09.08.64.96,1.02,1.42l-.12-.03c.38.36.42.35.83.93.08.15.02.16-.08-.04.26.5.3.33.62.93l-.18-.19c.3.49.3.44.52.67.22.29.56.94.54,1.05.08.04.3.28.46.58,0,.05-.08-.04-.12-.09.45.85.8,1.19,1.06,1.81-.02.03,0,.07.01.12-.38-.67-.68-1.21-.64-1.16-.07.04.23.59-.11.21.3.4.83,1.08,1.09,1.62,0,.03.02.06.02.08l-.04-.05c.06.12.13.23.2.33.08.17.14.28.23.45-.02.09.32.63.45.91.06-.06.24.3.13-.07.02.05-.04-.05-.13-.23-.02-.04-.05-.08-.07-.11l.02.02c-.09-.18-.23-.41-.38-.67.16.19.33.39.44.72.12.11.25.24.32.32.09.43.4,1.19.39,1.32.48.82,1.05,1.96,1.43,2.43.13.23.09.3.11.4-.08-.13-.15-.3-.21-.37.26.47.68,1.43.84,1.5.24.64-.25-.3.15.53l-.08-.1c.61,1.72,1.42,2.63,2,4.58-.04-.13-.06-.2-.05-.24.72,2.2,1.75,4.44,2.25,6.67.17.63.26.67.43,1.03l-.05.16.28.62c.33.91.22,1.66.68,2.8l.02-.17c.11.42.38,1.33.29,1.28.02.04.1.12.1.3l-.04.02.32,1.03c.15.82-.22-.08.04,1.1.12.43.43,1.22.42,1.05-.04-.18-.07-.46-.03-.48l.12.4c.16.04.37.32.24-.69l-.24-.67.02-.24.14.58c-.01-.34-.12-.54-.21-.77.02-.06.03-.17,0-.31l-.29-.65c.04-.1.18.28.1-.18-.13-.3-.05.33-.21-.18-.01-.35.06-.26-.08-.64.02-.06.06.01.12.16-.11-.34-.24-.9-.37-1.06-.02-.36-.33-1.15-.19-1.15-.06-.1-.27-.57-.36-.89.31.53-.31-1.18-.1-1.07-.25-.39-.54-1.5-.84-2.22.02.04.07.11.09.18-.12-.42-.12-.56-.18-.83-.13-.02-.36-.66-.55-.98-.05-.55.23.27.29.07-.08.05-.39-.86-.41-.65-.07-.41-.09-.34-.07-.58-.17-.02-.16-.35-.36-.64-.13-.58.08-.19-.19-.79-.06-.31.19.22.19.22Zm-6.72-14h0c.07.11.13.21.16.28-.03-.06-.08-.14-.16-.28Zm-.65-1.13c.08.14.17.31.28.49,0,.05-.05.03-.12-.09.05.05-.08-.22-.16-.41Zm.84,2.68c-.11-.17-.13-.24-.13-.27.05.08.11.18.19.31l.02.02s-.05-.02-.08-.05Z"/>
          <path class="cls-5" d="m352.29,75.57s.02.04.04.07c-.01-.04-.03-.08-.04-.12l-.06-.05s.04.07.05.1Z"/>
          <path class="cls-5" d="m346.51,110.55h-.03s.04,0,.06.01c-.02,0-.02,0-.03-.01Z"/>
          <polygon class="cls-5" points="340.86 57.87 340.84 57.89 340.93 57.96 340.86 57.87"/>
          <path class="cls-5" d="m353.68,110.85s.04.02.09.02c0,0-.04-.01-.09-.02Z"/>
          <path class="cls-5" d="m356.78,110.87l.44.03c-.19-.01-.33-.02-.44-.03Z"/>
          <path class="cls-5" d="m359.16,110.91s.04-.03.05-.04h0s-.04.04-.04.04Z"/>
          <path class="cls-5" d="m338.88,92.29s-.05-.01-.07-.01c-.16,0-.05,0,.07.01Z"/>
          <path class="cls-5" d="m339.79,102.8l-.04-.36c0,.2,0,.36.04.36Z"/>
          <polygon class="cls-5" points="328.36 90.14 328.36 90.14 328.39 90.07 328.36 90.14"/>
          <path class="cls-5" d="m339.75,101.91c-.02.2-.01.37,0,.52,0-.16.01-.36,0-.52Z"/>
          <path class="cls-5" d="m362.88,104.61l-.02-.11s-.01,0-.02-.01l.03.12Z"/>
          <path class="cls-5" d="m362.85,104.48l-.03-.12c.01.06.02.11.03.12Z"/>
          <path class="cls-5" d="m362.75,104.1l.07.26c-.02-.09-.03-.21-.07-.26Z"/>
          <path class="cls-5" d="m363.34,107.74l.04.03s-.02-.03-.04-.03Z"/>
          <path class="cls-5" d="m363.48,108.69c-.02-.23,0-.58-.07-.89l-.03-.03c.07.14.02.71.1.92Z"/>
          <path class="cls-5" d="m361.37,110.53l.8.03c-.14-.03-.32-.08.04-.09-1.01-.1.21.07-.84.06Z"/>
          <path class="cls-5" d="m358.88,110.48c.43-.02,0-.05.02-.07-.27.03-.34.04-.02.07Z"/>
          <path class="cls-5" d="m340.94,110.46l.05-.07c-.26-.05-.01.03-.05.07Z"/>
          <polygon class="cls-5" points="339.71 107.69 339.66 108.01 339.73 108.16 339.71 107.69"/>
          <polygon class="cls-5" points="340.27 105.66 340.28 105.8 340.25 105.25 340.27 105.66"/>
          <path class="cls-5" d="m330.29,87.14l-.12.07c-.05.22.04.3.12-.07Z"/>
          <path class="cls-5" d="m332.64,74.28c.06-.14.12-.5.08-.73-.03.29-.08.58-.08.73Z"/>
          <polygon class="cls-5" points="337.97 55.82 337.77 55.65 338.13 55.99 337.97 55.82"/>
        </g>
      </g>
    </g>
    <g>
      <path class="cls-5" d="m363.34,131.88h-22.63c-.18,0-.34.15-.34.34v18.94c0,.71-.58,1.28-1.28,1.28h-17.07c-.71,0-1.28.58-1.28,1.28v17.56c0,.7-.58,1.28-1.31,1.28l-11.88.03c-.55,0-1.02.46-1,1,.59,16.44,1.49,30.38,1.71,34.7.03.62-.12,1.71,2.09.73,27.28-12.01,45.49-37.37,51.72-67.35.64-3.14,1.16-6.31,1.49-9.57l-.21-.24Z"/>
      <g>
        <path class="cls-4" d="m363.34,131.88h-22.63c-.18,0-.34.15-.34.34v18.94c0,.71-.58,1.28-1.28,1.28h-17.07c-.71,0-1.28.58-1.28,1.28v17.56c0,.7-.58,1.28-1.31,1.28l-11.88.03c-.55,0-1.02.46-1,1,.59,16.44,1.49,30.38,1.71,34.7.03.62-.12,1.71,2.09.73,27.28-12.01,45.49-37.37,51.72-67.35.64-3.14,1.16-6.31,1.49-9.57l-.21-.24Z"/>
        <g>
          <path class="cls-5" d="m363.49,131.74c-.09-.06-.13-.02.17.3l.04.03c.02.08.04.17.06.27l.02-.3-.29-.3Z"/>
          <path class="cls-5" d="m363.35,134.05c0,.4.02.86.15.62-.05-.4,0-.49-.06-.93.03-.34.1-.58.13-.52-.01-.12.08-.52.04-.71-.12.43-.19.98-.2,1.56-.04.12-.05,0-.06-.03Z"/>
          <path class="cls-5" d="m353.94,165.44l.1-.19s-.07.11-.1.19Z"/>
          <path class="cls-5" d="m343.3,182.76c.1-.12.13-.18.13-.19-.08.12-.15.21-.13.19Z"/>
          <path class="cls-5" d="m341.04,185.4c.05-.06.09-.1.13-.16-.06.05-.11.11-.13.16Z"/>
          <path class="cls-5" d="m353.94,165.44l-.26.48s.14-.24.26-.48Z"/>
          <path class="cls-5" d="m362.91,138.58c.01-.11.02-.21.02-.3l-.04.28s0,.01.01.02Z"/>
          <path class="cls-5" d="m357.37,157.15l.05-.16s0-.1,0-.14l-.06.3Z"/>
          <path class="cls-5" d="m359.52,150.61c-.05.15.02.23.04.29,0-.09,0-.21.04-.34-.02,0-.04,0-.08.05Z"/>
          <path class="cls-5" d="m362.29,140.04l.02-.19c0,.05-.02.13-.02.19Z"/>
          <path class="cls-5" d="m355.52,161.72s-.04.02-.05.05c.01,0,.03-.01.05-.05Z"/>
          <path class="cls-5" d="m355.34,131.47s0,.01,0,.02c.04,0,.05-.01,0-.02Z"/>
          <path class="cls-5" d="m363.34,131.9h-.11s-.02.04-.02.05l.13-.05Z"/>
          <path class="cls-5" d="m336.74,190.07s.01-.01.02-.02c.1-.13.04-.06-.02.02Z"/>
          <path class="cls-5" d="m307.49,185.54c-.04.67-.15-1.07-.19-.07.03-.09.18.9.19.07Z"/>
          <path class="cls-5" d="m362.87,138.76l-.05.28c.02-.13.04-.21.05-.28Z"/>
          <path class="cls-5" d="m307.3,185.46h0s0,.1,0,.1c0-.04,0-.07,0-.1Z"/>
          <path class="cls-5" d="m325.75,199.68s.09-.03.14-.06c0,0-.04,0-.14.06Z"/>
          <path class="cls-5" d="m334.18,192.79l-.2.18c.08-.07.15-.13.2-.18Z"/>
          <path class="cls-5" d="m321.14,202.97c-.13.07-.17.09-.34.21.02,0,.04-.02.06-.02.05-.05.13-.11.28-.19Z"/>
          <path class="cls-5" d="m316.05,205.94s.07-.03.1-.04c.05-.03.11-.07.16-.1l-.26.13Z"/>
          <path class="cls-5" d="m340.01,135.03c.02-.13.05-.21.08-.27-.06.09-.08-.78-.08.27Z"/>
          <path class="cls-5" d="m362.86,138.58s.02.09,0,.18c.01-.07.02-.13.03-.2,0-.02-.02-.02-.04.02Z"/>
          <path class="cls-5" d="m321.3,203.68l-.8.51c.22-.14.51-.33.8-.51Z"/>
          <path class="cls-5" d="m320.38,158.92v-.22c-.01.08,0,.16,0,.22Z"/>
          <path class="cls-5" d="m318.07,205.58c-.16.06-.33.13-.49.21-.03.03-.07.05-.08.07l.58-.28Z"/>
          <path class="cls-5" d="m340.09,134.75h0s0,0,0,0Z"/>
          <path class="cls-5" d="m343.83,131.39c-.9,0-.42.11-.61.18-1.07.03-.49-.08-.86-.14-.64.03-1.05.12-1.63.13-.06,0-.11,0-.17.02-.06,0-.22.04-.05-.04-.28.09-.54.42-.48.83,0,.24,0,.51,0,.78,0,.54.01,1.09.07,1.5-.01.06-.02.09-.03.11.06-.13.11-.15.16-.13,0,.4.07.74,0,.9,0-.25-.03-.27-.05-.38l.03.42c-.11.38-.04-.57-.12-.57.03.82.12,1.78.09,2.4-.1.13-.04-1.47-.13-.63l.04-.97c-.16.74.01-.59-.16.09-.03,1.28.05,1.43.02,2.71.06.29.09-.09.14.19.1,1.81-.26,1.43-.12,2.76.07.35.2.48.13,1.43l-.12-.32c-.01,1.24.17.71.09,2-.05-.23-.04-.97-.05-.79-.09.84.07.59.07,1.24l-.1.13c.03,1.32.07,2.78.11,4.23-.03-.08-.06-.33-.1.01,0,.46.01.94.02,1.42,0,.27,0,.42-.07.59-.07.17-.19.31-.33.41-.15.1-.32.16-.49.16-.23,0-.47-.01-.7-.02-.47-.02-.94-.03-1.38-.05l-.68.09c-.16,0-.29-.04-.12-.06-.69-.03-.04.06-.37.09-.39,0-.52-.05-.27-.08-1.22.08-3.48.16-4.77.07l.25-.03c-1-.04-1.13.19-2.06.1l.18-.02c-2.18-.04-4.58.04-6.24-.09-.08.03-.25.05-.47.05-.23.01-.45-.03-.8.02-.66.11-1.05.69-.99.8-.2.31-.25.57-.27.77-.02.17-.03.3-.04.44-.03.29-.05.63-.08,1.51,0,.47.11.7.13,1.27h-.09s.1.8.1.8l-.11.42.02.54c0-.22.04-.46.07-.43.04.85-.07,2.06-.11,2.08l.08,2s-.05-.38-.08-.65c.1,1.07-.1.19-.01,1.17.02-.13.06.07.08.09-.06.49-.06,1.6-.03,2.42l-.07-.16c0,1.49.02,3.13.03,4.8.03-.6.14-.46.15.03l-.1.2c.06.32.04-.51.11.14-.01.62-.11.42-.15.06l.03.76s-.05-.13-.08-.18c.03.19.02.41-.11.6-.12.2-.32.32-.44.42l-.04-.02c-.21.09-.61.04-.94.06-.33,0-.62,0-.9.01-.57,0-1.1.02-1.77.03-.03.09-.56.07-.96.14-1-.03-2.11-.09-3.31-.08-.84.04-.25.07-.63.13-.06-.08-1.26-.07-.64-.13-.72.01-1.18.02-1.69.02-.25,0-.52.01-.84.02-.16,0-.33.01-.52.02-.25.01-.52.1-.75.28.22-.13.5-.18.37-.12-.4.12-.72.56-.71.5.02-.03.03-.07.06-.1-.19.25-.25.69-.21.94.01.27.02.55.03.83,0,.56.01,1.14.02,1.71,0,1.13.01,2.21.13,3.02v-.09s.16,1.69.16,1.69c.02.78-.08-.46-.1.11.22,1.82.12,2.88.28,4.38-.18,1.17.22,4.12.15,5.7l.05-.09c.07.4,0,.49,0,.79.04-.04.03-.44.07-.19.23,3.43.27,7.09.39,10.61.05,1.29.32.72.27,2.35l-.12-.46c.12,1.3.19,2.62.25,3.95.04.33-.03.62.12,1.1.07.23.32.49.58.56.25.08.47.07.66.04.77-.12,1.34-.45,1.9-.74-.13.09-.12.12-.34.22.52-.17,1.8-.86,1.79-.92.36-.17.11,0,.34-.07.51-.2,1.19-.67,1.48-.73.05-.01-.13.09-.21.14.3-.18,1.49-.7,1.14-.63.87-.41,1.58-.93,2.28-1.25.39-.33,1.45-.77,1.52-.96.01.15,1.53-.72,1.98-1.14-.15.15.46-.25.3-.07.58-.38,1.1-.75.96-.74,1.16-.57,2.08-1.5,2.78-1.75,1.59-1.31,3.11-2.45,4.52-3.65.06.18-1.6,1.27-1.45,1.33,1.39-1.07,2.03-1.89,3.39-2.98.35-.28-.15.21-.25.33.65-.59,1.29-1.14,1.92-1.68.61-.56,1.17-1.13,1.7-1.69,0,.01-.1.14-.21.26.22-.22.53-.48.46-.51l-.2.22c-.41.28.74-.99.75-1.06-.25.49,1.13-1.04.7-.3.14-.15.3-.35.23-.34.22-.2.31-.25.13,0,.77-.79.43-.57,1.11-1.3.02.02-.11.18-.15.28.3-.42.59-.83,1.18-1.44-.02.05.06,0-.11.18.95-1.1,1.58-1.89,2.6-3.11-.19.45.37-.39.51-.39l.51-.69-.26.23c.47-.58.82-1.15,1.25-1.63l-.31.46.86-1.11-.53.59c.43-.63-.17-.03.48-.78-.11.17.46-.59.73-.87h0c.18-.32.37-.65.71-1.09.11-.1.04.17.11.11.13-.35.99-1.44,1.17-1.88-.07.14-.02.18.02.15l.11-.29c.22-.27.26-.3.27-.23.61-.85-.3.2.44-.79-.05.09-.01.05-.11.23.68-1.03,1.23-2.06,1.86-3,.28-.22-.5.86-.22.58.41-.71.84-1.44,1.27-2.17.38-.75.76-1.5,1.16-2.19l-.15.25c-.04-.27.64-1,.96-1.74-.08.18-.04.27-.03.21.27-.47.54-.96.81-1.53.25-.57.53-1.22.86-1.97l-.05.2c.31-.56.75-1.52,1.06-2.13.05-.2.23-.56.07-.37,1.1-1.85,1.45-3.81,2.37-5.48-.09.21-.17.51-.1.35.2-.5.37-1.01.53-1.53-.11.1-.11.18-.27.49.03-.21.15-.65.28-1.03-.2.7.11.03.25-.25-.04.04-.02-.07-.05-.05.4-.75-.09-.18.37-1.24l.02.07c.12-.41.21-.8.37-1.24.14-.16-.11.44-.06.49.21-.62.28-1.26.55-1.8-.06.27-.2.65-.27.91.3-.58.32-.65.46-1.11l-.02.04.35-1.05-.1.26c.02-.85.43-1.61.6-2.7-.17,1.06.02.19.09.29.1-.26.25-.67.24-.54.07-.52.3-.82.39-1.55.04-.02.13-.54.18-.41.13-.67-.09.14-.11.08.14-1.04.68-2.36.89-3.85.24-1.27.2-1.52.37-2.71.12-.39.04.35.04.35.17-.63.25-1.12.32-1.73,0,.13.05,0,.11-.17.08-.49-.05-.34.1-.98.01.12.04.27.04.51.06-.58.11-1.16.17-1.76.08-.15.02.37.02.59.09-.67.22-1.74.16-1.96l-.09.43c.03-.24.09-.12.08.07-.02.58-.15.82-.19.85l.04-.43c-.24.41-.23,1.71-.4,2.56l-.06-.38-.05.89c-.07.18-.16.29-.1-.13-.17.6-.05.55-.22,1.06-.02.06-.02.03-.02-.03l-.08.6c0-.12-.11.08-.02-.28-.27,1.05-.26,1.73-.45,2.11v-.09c-.29,1.47.07.16-.08,1.28l-.4.69.06.17c-.04.15-.12.45-.14.38-.07.58.06-.09.04.25-.26.71-.43,2.02-.62,2.14,0,.28.23-.68.08.11-.22.18-.23.89-.49,1.53-.02-.22.2-.83-.06-.2.02.43-.4,1.27-.54,1.83.1.06-.3,1.22-.54,2.15-.02-.07-.66,1.7-.99,2.53v-.03c.04.2-.29,1.07-.49,1.71-.05-.05-.04-.17.05-.53l-.21.6c-.02.15-.06.35-.19.74l-.03-.18c-.28.8-.54,1.61-1,2.6.05.09.53-.72.14.37-.06.02-.14.03-.04-.25-.03.09-.1.34-.19.51l.11-.45c-.22.45-.04.26-.2.63-.05-.03-.15.25-.17.18.03-.1.15-.31.19-.46-.18.41-.42.89-.53,1.04.05-.02.08.03-.04.34-.32.78-.18.24-.39.68-.03.21-.3.68-.23.73-.11.22-.16.25-.23.32-.15.41-.87,1.84-.57,1.44l.05-.1s-.02.04-.03.07h0s0,0,0,0c-.56,1.32-1.28,2.69-1.96,3.93l-.03-.02c-.38.76-.89,1.66-1.12,2.23-.12.22-.33.49-.31.38-.3.58-.28.67-.8,1.45.29-.58-.14.18.3-.6-.43.72-.6.84-1,1.66.1-.3-.42.49-.61.84l.36-.47c-.23.39-.44.72-.66,1.05l.03-.24c-.51.7-.87,1.38-1.22,2.02-.38.62-.74,1.18-1.21,1.66-.2.41.58-.73.42-.35-.47.64-1.07,1.23-1.21,1.43-.67.85-.46.91-1.15,1.82.11-.1.29-.14-.22.54-.51.61-.73.67-.44.26.12-.15.18-.21.19-.2.15-.21.35-.48.12-.26l-.04.1c-.28.28-.95,1.14-.84.9-.35.49-.11.24.18-.1-.68.76-.99,1.24-1.68,2.03.12-.12.25-.21.14-.08-1,1.16-.35.59-1.03,1.38-.44.4.04-.24-.63.56-.46.45-.16.04-.02-.17-.59.75-1.23,1.29-1.6,1.68l.31-.39c-.19.23-.35.41-.52.6l.25-.16c-.21.21-.37.39-.39.37-.17.26.24-.09-.11.4-.29.27-.77.92-.95.93.88-.87-.15.04.54-.74-.13.15-.29.34-.51.54-.04.02.02-.04.07-.1-.91.76-.31.45-1.19,1.31.07-.15-.28.12-.41.27.35-.34.23-.1-.06.25-.59.52-.59.62-.89.9l.35-.31c-.08.15-.36.42-.74.81-.06,0,.34-.37.18-.25-.37.49-1.04.9-1.65,1.48-.32.23-.1-.05-.38.15-.67.67-.83.61-1.55,1.31.27-.13.29-.18-.2.33l1.21-1.11-.73.77c.38-.32.76-.72,1-.9-.34.37-.31.32-.09.22-.59.36-.98.93-1.62,1.38l-.1-.16c-.93.72-1.56,1.4-2.81,2.28l.41-.27c-.12.18-.75.58-1.13.9,0-.08-.26.09-.45.19.05.02-.9.67-.94.85-.2.11-.39.24-.6.33-1.05.65-1.08.92-2.09,1.55.26-.25-.21,0,.43-.47-.33.22-.64.4-.62.44-.21.09-.88.67-1.21.82-.13.11-.14.2-.51.44-.05.02-.01-.03-.01-.03.02.03-.57.41-.2.26-1.16.44-2.97,1.69-3.98,2.08-.73.47-1.67.92-2.38,1.27.04-.04-.01-.03.13-.09-1,.42-.52.45-1.67.92-.61.18.57-.33.2-.2-.24-.11-1.33.67-2.13.92l.18-.1c-.3.11-.63.27-1.02.41-.38.13-.86.23-.93-.16,0,0,.03.03.03,0-.12-.24-.13-.82-.2-1.35-.05-.55-.09-1.13-.13-1.63.09.31.06.45.13.26-.03-.45-.12.14-.19-.76.03-.29.03-.94.11-1.03l.05.84c.09-.44-.06-1.09-.06-1.54l.05.05c-.08-1.29-.2-1.3-.26-2.69l-.03.15c-.16-.75.04-.64-.09-1.39l.11-.23c-.05-.5-.2-1.75-.27-2.65.11.5.21,1.55.3,2.2-.02-.5-.09-1.69-.16-1.94.02.2.06.45.05.65-.13-.6-.21-1.4-.26-2.39.24.16-.07-2.58.08-3.31-.17-1.75-.13-3.47-.25-5.51-.15.73-.03-.59-.22-.46-.04-.47-.04-.66-.03-.7l.04-1.44c.04-.34.06.45.1.4-.04-1.04.06-.44.07-1.13-.06.14-.11-.36-.12-.95l-.05.84c-.17-1.45.1-1.26-.08-2.72l.08.46c-.07-.75-.14-2.77-.32-3.5.02-.13.06-.31.09.02-.03-.9-.12-1.9-.2-2.84-.02-.24-.04-.47-.06-.7l-.02-.33c0-.07,0-.15.03-.22.1-.28.4-.46.63-.43-.03.02-.06.04-.08.06.08-.02.25-.04.4-.05.16-.01.32-.02.53,0-.02.02-.14.05.02.05.18-.02.89-.08,1.34-.06l-.38.05c1.75.06,2.69-.13,4.16-.17,0,.14,1.38.18,2.07.2l-.02.02c1.02,0,1.89-.02,2.74-.06.43-.02.87-.05,1.31-.07.53-.07,1.04-.42,1.27-.95.09-.15.17-.36.19-.6,0-.2.02-.41.03-.64,0-.46.01-.98.02-1.52,0-1.08,0-2.26.05-3.2-.02.29-.11-.05-.12-.38.03-.44-.09-1.22.03-1.15v.16c.12-.33.09-1.24.09-1.95l-.16-.12c.24-1.86-.09-4.87.12-5.88-.03-.46-.06-.99-.08-1.45l.09.02c.01-.61.02-1.07.03-1.56.02-.32.26-.74.79-.81-.07.03-.13.06-.19.1.21-.08.56-.09.81-.17.27-.06.52-.13.92-.13l.24.13c1.51,0,3.04.11,4.53,0-.02.02-.07.06-.31.06.71,0,2.75.09,2.49-.09.02.12,1.56.01,2.38-.04l-.13.09c.69-.11.71-.14,1.67-.17.23.01.2.07-.1.05.76.04.59-.08,1.51-.04l-.34.05c.78,0,.72-.02,1.15-.09.49-.03,1.48.02,1.6.1.11-.05.52-.11,1.01-.09.08.03-.13.06-.2.06.76.07,1.3-.44,1.46-.9.1-.23.12-.49.11-.7,0-.21,0-.41.02-.64.03-.02.04-.08.05-.15,0,.26,0,.51,0,.73,0,.21-.02.49-.09.67-.14.37-.33.52-.3.49.1.1.61-.88.29-.05.11-.2.2-.46.22-.74.01-.32-.03-.48-.04-.74-.04-.47-.06-.97-.04-1.38,0-.04.02-.08.03-.11v.08c.02-.19,0-.36,0-.52.01-.26.02-.43.02-.68.07-.1.04-.96.04-1.38-.09.03-.07-.51-.14,0,0-.07.01.08.01.36,0,.06,0,.13,0,.18v-.03c0,.27,0,.63,0,1.04-.04-.33-.08-.68-.03-1.14-.05-.22-.11-.46-.14-.58.12-.57.19-1.68.26-1.83-.05-1.28-.03-3.01-.19-3.81-.02-.36.05-.42.07-.55.02.21.01.46.04.57-.04-.73-.02-2.15-.13-2.32.05-.92.1.51.09-.74l.03.17c.09-1.17.03-2.14-.04-3.12-.03-.49-.06-.99-.08-1.52,0-.27,0-.54,0-.82.01-.16-.01-.24.04-.34.05-.1.17-.13.27-.11.12,0,.25.02.38.03-.19-.01-.28-.02-.32-.04,3.13.1,6.44-.1,9.53.07.88.03.97-.04,1.51-.09l.19.09.92-.11c1.3-.08,2.25.23,3.89.08l-.21-.06c.59.01,1.87-.04,1.77.04.06-.01.19-.07.42-.03l.02.05,1.45-.08c1.12.04-.18.19,1.46.2.61-.02,1.74-.14,1.51-.17-.25,0-.63-.03-.65-.08l.56-.03c.1-.14.53-.29-.84-.39l-.95.09-.31-.07h.8c-.46-.07-.74-.01-1.07.03-.08-.04-.21-.06-.4-.08l-.94.14c-.11-.06.42-.11-.21-.14-.44.06.42.13-.31.17-.46-.07-.32-.12-.86-.06-.08-.04.04-.06.25-.08-.48.04-1.26.02-1.51.09-.48-.08-1.61.02-1.56-.11-.15.03-.84.11-1.28.11.8-.16-1.64,0-1.43-.18-.59.15-2.14.06-3.19.15.06-.01.17-.04.27-.03-.59-.01-.76-.06-1.14-.08-.08.12-.99.15-1.49.22-.72-.12.44-.14.21-.25.04.1-1.26.1-1.01.18-.55-.07-.48-.03-.76-.13-.1.15-.51.03-.97.12-.8-.07-.21-.14-1.09-.1-.42-.05.36-.1.36-.1Zm-3.69,18.09h0c0-.18,0-.33,0-.43,0,.09,0,.21,0,.43Zm0,1.74c.01-.18,0-.47,0-.75.03-.06.06,0,.06.18-.02-.1-.03.33-.07.57Zm.6-3.7c.01.28,0,.37-.02.41,0-.13,0-.28-.01-.49,0,0,0-.02-.01-.03.02.03.03.06.04.11Z"/>
          <path class="cls-5" d="m340.63,147.01s0-.06,0-.11c0,.06-.01.11-.02.17,0,.03.02.07.03.1,0-.05,0-.1,0-.15Z"/>
          <path class="cls-5" d="m354.06,165.23l-.02.03s.03-.05.04-.06c-.01.02-.02.02-.03.03Z"/>
          <polygon class="cls-5" points="320.34 156.96 320.36 156.96 320.34 156.81 320.34 156.96"/>
          <path class="cls-5" d="m358.05,156.41s.03-.05.06-.11c0,0-.03.05-.06.11Z"/>
          <path class="cls-5" d="m359.43,152.45l.19-.56c-.09.24-.15.42-.19.56Z"/>
          <path class="cls-5" d="m360.37,149.37s-.01-.06-.02-.07h0s.02.07.02.07Z"/>
          <path class="cls-5" d="m334.74,193.06s-.06.06-.09.09c-.2.22-.06.07.09-.09Z"/>
          <path class="cls-5" d="m344.67,181.51c-.08.14-.17.28-.25.42.16-.22.29-.39.25-.42Z"/>
          <polygon class="cls-5" points="321.39 203.62 321.39 203.62 321.3 203.68 321.39 203.62"/>
          <path class="cls-5" d="m343.99,182.5c.19-.2.32-.38.43-.56-.13.18-.29.38-.43.56Z"/>
          <path class="cls-5" d="m363.37,135.75l.03-.15s0,0-.01-.02v.17Z"/>
          <path class="cls-5" d="m363.39,135.57v-.17c0,.08,0,.15,0,.17Z"/>
          <path class="cls-5" d="m363.43,135.04l-.03.36c.02-.12.04-.28.03-.36Z"/>
          <path class="cls-5" d="m362.63,139.95l.02.05s0-.05-.02-.05Z"/>
          <path class="cls-5" d="m362.39,141.22c.07-.3.22-.75.28-1.18l-.02-.04c0,.21-.25.92-.26,1.22Z"/>
          <path class="cls-5" d="m360.8,146.4l.27-1.05c-.08.18-.18.41-.07-.07-.41,1.3.14-.26-.2,1.12Z"/>
          <path class="cls-5" d="m359.86,149.62c.15-.56-.05,0-.06-.04-.07.36-.09.45.06.04Z"/>
          <path class="cls-5" d="m350.52,171.91l-.04-.09c-.21.4.02.02.04.09Z"/>
          <polygon class="cls-5" points="348.46 176.09 348.74 175.75 348.79 175.53 348.46 176.09"/>
          <polygon class="cls-5" points="346.51 178.08 346.61 177.92 346.2 178.54 346.51 178.08"/>
          <path class="cls-5" d="m316.92,205.36l.16.02c.26-.16.26-.29-.16-.02Z"/>
          <path class="cls-5" d="m308.13,201.21c.04-.19.05-.69-.02-.99.01.4,0,.79.02.99Z"/>
          <polygon class="cls-5" points="321.12 161.63 321.15 161.99 321.12 161.32 321.12 161.63"/>
        </g>
      </g>
    </g>
    <g>
      <path class="cls-5" d="m217.58,154.61c0-.73-.55-1.31-1.25-1.31h-20.68c-.7,0-1.28-.58-1.28-1.28l.05-18.19c0-.7-.58-1.28-1.31-1.28h-22.11c-.55,0-1.01.34-1.19.82v.03c.55,4.7,1.44,9.29,2.66,13.77,6.65,24.66,24.42,45.97,46.12,58.23.82.47,1.56.23,1.51-.71l-2.51-50.08Z"/>
      <g>
        <path class="cls-4" d="m217.58,154.61c0-.73-.55-1.31-1.25-1.31h-20.68c-.7,0-1.28-.58-1.28-1.28l.05-18.19c0-.7-.58-1.28-1.31-1.28h-22.11c-.55,0-1.01.34-1.19.82v.03c.55,4.7,1.44,9.29,2.66,13.77,6.65,24.66,24.42,45.97,46.12,58.23.82.47,1.56.23,1.51-.71l-2.51-50.08Z"/>
        <g>
          <path class="cls-5" d="m217.78,154.6c-.03-.11-.09-.04-.06.26l.11.21-.05-.47Z"/>
          <path class="cls-5" d="m217.7,156.67c.07.36.17.77.26.53-.12-.35-.08-.44-.21-.82-.03-.31,0-.54.05-.49-.03-.11,0-.48-.07-.64-.06.4-.04.91.05,1.43-.02.11-.05,0-.07-.02Z"/>
          <path class="cls-5" d="m219.04,186.59v-.19c0,.05,0,.12,0,.19Z"/>
          <path class="cls-5" d="m219.85,205.06c.03-.11.01-.17,0-.17,0,.11-.03.19,0,.17Z"/>
          <path class="cls-5" d="m217.52,204.42c.06.04.1.07.16.1-.06-.04-.11-.09-.16-.1Z"/>
          <path class="cls-5" d="m219.04,186.59v.5s0-.25,0-.5Z"/>
          <path class="cls-5" d="m218.15,160.78c-.01-.1-.02-.19-.04-.27l.02.25s.01,0,.02.02Z"/>
          <path class="cls-5" d="m218.55,178.42v-.15s-.04-.08-.06-.12l.06.27Z"/>
          <path class="cls-5" d="m218.22,172.16c0,.14.09.19.13.24-.04-.08-.06-.18-.07-.31-.02,0-.04.02-.06.07Z"/>
          <path class="cls-5" d="m217.87,162.21l-.02-.18s.01.12.02.18Z"/>
          <path class="cls-5" d="m218.75,182.91s-.02.03-.03.06c.01,0,.02-.02.03-.06Z"/>
          <path class="cls-5" d="m211.07,152.89s0,.01,0,.02c.04,0,.05-.01,0-.02Z"/>
          <path class="cls-5" d="m217.56,154.61v-.1s-.04-.02-.06-.02l.06.12Z"/>
          <path class="cls-5" d="m212.69,201.26s.01,0,.02.02c.13.08.06.03-.02-.02Z"/>
          <path class="cls-5" d="m178.26,161.78c.19.57-.52-.84-.2.01,0-.09.48.68.2-.01Z"/>
          <path class="cls-5" d="m218.15,160.95v.26c0-.12,0-.19,0-.26Z"/>
          <path class="cls-5" d="m178.06,161.8h0s.03.09.03.09c-.01-.04-.02-.06-.03-.09Z"/>
          <path class="cls-5" d="m202.12,193.19s.04.07.08.12c0,0-.01-.04-.08-.12Z"/>
          <path class="cls-5" d="m209.8,199.48l-.19-.16c.08.06.14.11.19.16Z"/>
          <path class="cls-5" d="m198.26,189.78c-.09-.1-.11-.14-.25-.26l.03.05c.06.04.12.1.22.21Z"/>
          <path class="cls-5" d="m194.52,185.93s.04.06.05.08c.04.04.08.08.12.12l-.17-.21Z"/>
          <path class="cls-5" d="m195.04,152.7c.04.07.07.12.1.17-.01-.08.48.18-.1-.17Z"/>
          <path class="cls-5" d="m218.1,160.79s.04.08.05.16c0-.06,0-.12-.01-.18-.01-.01-.03-.02-.03.02Z"/>
          <path class="cls-5" d="m197.63,190.11l-.6-.61c.17.17.39.39.6.61Z"/>
          <path class="cls-5" d="m175.82,132.2h.2c-.08-.01-.15,0-.2,0Z"/>
          <path class="cls-5" d="m195.23,187.7c-.08-.13-.18-.26-.29-.4-.03-.02-.06-.05-.08-.06l.37.45Z"/>
          <path class="cls-5" d="m195.15,152.88h0s0,0,0,0Z"/>
          <path class="cls-5" d="m200.6,152.81c-.81,0-.38.11-.56.18-.97.03-.45-.08-.78-.14-.61.03-1.07.13-1.52.13-.03-.02-.12-.03-.02-.05-.32.05-.8.05-1.29.05-.24,0-.49,0-.73.01-.21.01-.35,0-.51-.05-.04-.03-.05-.05-.05-.06.05.1.05.15.01.18-.3-.13-.53-.35-.52-.5.1.17.15.16.22.21-.09-.07-.16-.16-.22-.25-.01-.16.03-.05.12.06.08.12.22.24.24.21-.24-.18-.43-.48-.44-.81-.02-.38-.04-.74-.02-1.03.1-.12.03,1.34.13.57l-.02.44c0,.13,0,.24.03.35.03-.53.09.37.14-.1-.04-.16-.01-.41-.02-.6,0-.19-.01-.36-.02-.52-.01-.33-.02-.65,0-1.23-.06-.26-.09.09-.14-.18-.1-1.65.27-1.3.13-2.51-.07-.31-.2-.44-.13-1.3l.12.29c.01-1.13-.17-.64-.09-1.82.05.21.04.89.05.72.1-.76-.07-.54-.06-1.13l.1-.12c-.03-1.2-.07-2.53-.1-3.85.03.07.06.3.1,0-.05-1.68.02-3.58.09-5.19l-.09-.62c0-.14.04-.27.06-.11.02-.7-.05-.01-.1-.37-.08-.43-.13-.59.01-.32-.12-.34-.4-.71-.81-.91-.2-.11-.44-.17-.68-.18-.24,0-.41,0-.62.01-.8.02-1.61.02-2.19-.03l.23-.03c-.91-.04-1.03.19-1.87.1l.16-.02c-1.98-.04-4.17.04-5.68-.09-.29.13-1.96-.06-2.09.12-1.13-.09-.81-.12-2.4-.18-.42,0-.63.11-1.16.13v-.09s-.73.1-.73.1l-.38-.11-.49.02c.2,0,.42.04.39.07-.77.04-1.88-.07-1.9-.11l-1.82.08s.35-.05.59-.08c-.97.1-.18-.1-1.07-.01.12.02-.06.06-.08.08-.22-.03-.59-.04-.99-.05-.43-.05-1.09.17-1.37.56.03-.06.05-.12.09-.18-.18.16-.3.31-.43.58-.08.14-.08.32-.05.46l.03.26c.05.35.1.71.15,1.08.11.73.23,1.48.34,2.23-.05-.54.08-.44.16,0l-.07.19c.11.27-.04-.47.13.11.08.56-.05.4-.14.08l.15.68s-.07-.11-.11-.15c.11.27.1,1.19.28,1.58l-.02.04c.28,1.5.45,2.17.73,3.38.09,0,.18.48.33.83.18.89.36,1.89.65,2.95.24.73.13.2.27.52-.06.07.26,1.12.04.59.39,1.26.5,1.61,1.04,3.18-.02-.18-.07-.38-.01-.29.1.29.17.67.12.64l-.03-.07c.71,1.73,1.21,4.15,1.91,5.48l-.04-.07.68,1.39c.26.66-.22-.37-.06.13.78,1.48.98,2.44,1.69,3.63.26,1.05,1.63,3.4,2.24,4.7v-.1c.23.3.2.41.32.65.02-.05-.15-.38-.01-.19.39.68.78,1.37,1.17,2.08.41.69.82,1.39,1.24,2.09l1.24,2.11c.43.69.89,1.36,1.33,2.03.66.98.61.39,1.35,1.68l-.32-.29c.71.95,1.49,1.89,2.21,2.86.72.97,1.46,1.92,2.26,2.76-.11-.09-.13-.07-.28-.25.26.42,1.17,1.39,1.22,1.36.23.28.01.1.13.29.29.41.87.88.98,1.13.02.04-.11-.09-.17-.15.23.22,1.01,1.11.86.83.56.67,1.16,1.2,1.6,1.74.38.26.98,1.13,1.18,1.13-.14.05,1.01,1.15,1.45,1.49-.16-.1.31.37.12.26.45.44.88.83.85.7.7.95,1.8,1.49,2.13,2.09.72.6,1.41,1.18,2.08,1.73.69.54,1.36,1.06,2.03,1.58-.13.07-1.45-1.16-1.49-1,1.28.96,2.06,1.45,3.27,2.47.31.27-.22-.1-.34-.17,1.29.94,2.47,1.85,3.65,2.64-.01,0-.14-.07-.26-.15.23.16.51.4.52.33l-.23-.15c-.31-.34,1,.5,1.08.47-.5-.11,1.14.81.38.58.16.09.37.2.36.14.22.16.28.23.02.12.85.53.59.27,1.35.78-.02.02-.18-.07-.28-.09.42.2.83.41,1.45.86-.05,0,.01.06-.18-.07,1.12.7,2,1.02,3.2,1.82-.43-.1.4.29.41.43l.68.37-.24-.21c.28.17.61.35.96.38.34.05.77-.06.98-.38-.1.19-.29.35-.51.41.27-.06.53-.29.62-.54.1-.25.1-.51.08-.72,0,.24-.02.54-.18.8.14-.39.04-.37.03-.39-.03-.01,0-.06-.02-.51.02.18-.03-.68.02-1.03h0c-.05-.33-.11-.67-.11-1.18.03-.13.13.1.15.01-.11-.33-.11-1.58-.23-2,.03.14.09.14.1.1l-.09-.27c0-.31.02-.36.07-.31-.03-.94-.13.31-.12-.82.01.09.02.05.04.23-.02-1.13-.16-2.17-.17-3.21.1-.31.07.9.15.55-.1-1.49-.29-3.08-.34-4.52v.27c-.17-.19.03-1.08-.09-1.8.02.18.1.23.08.18-.02-.99-.14-2.02-.27-3.51l.05.18c0-.58-.06-1.53-.07-2.16-.05-.18-.06-.54-.11-.32.14-1.95-.31-3.69-.2-5.42.01.21.06.49.05.32l-.11-1.46c-.07.12-.03.19-.07.5-.05-.18-.1-.6-.12-.96.08.66.11-.01.14-.3-.02.05-.05-.05-.07-.02.09-.77-.15-.12-.12-1.17l.04.05c-.04-.39-.11-.75-.12-1.17.07-.18.06.41.13.44-.03-.59-.21-1.16-.16-1.7.03.26.06.6.09.86.07-.59.04-.65.03-1.09v.04s0-1,0-1v.26c-.26-.73-.13-1.51-.32-2.5.18.96.08.16.18.23.01-.26.02-.65.05-.54-.1-.47.02-.79-.12-1.45.03-.03-.02-.5.06-.4-.05-.61-.04.15-.09.1-.15-.94.01-2.23-.2-3.58-.12-1.17-.23-1.38-.33-2.47.03-.37.12.3.12.3.01-.59-.02-1.04-.08-1.6.03.11.05,0,.07-.18-.03-.45-.12-.29-.11-.89.04.1.1.23.14.44-.06-.52-.13-1.05-.19-1.59.04-.15.1.33.14.52-.05-.61-.13-1.59-.22-1.78v.4c-.03-.22.06-.12.08.05.09.52,0,.76-.02.79l-.04-.39c-.16.41.11,1.56.14,2.35l-.14-.32.15.8c-.02.17-.09.29-.13-.09-.03.57.07.5.02.98,0,.05-.02.03-.02-.02l.07.55c-.03-.11-.09.1-.08-.24-.02.99.18,1.58.1,1.96v-.08c.1,1.36.09.13.25,1.15l-.2.7.1.13c0,.14.01.42-.03.37.09.52.04-.09.11.21-.05.68.13,1.87,0,2.03.08.24.02-.65.11.07-.15.21.07.84.03,1.46-.09-.19-.08-.78-.12-.15.16.37.03,1.21.08,1.73.11.02.1,1.14.18,2.01-.04-.05.02,1.65.02,2.47l-.02-.02c.12.15.14,1,.2,1.61-.07-.02-.1-.13-.15-.46l.03.58c.04.13.07.31.1.69l-.09-.14c.04.77.18,1.54.17,2.53.08.05.18-.8.28.25-.04.04-.11.08-.14-.19.01.09.05.32.04.5l-.09-.41c0,.45.07.23.08.59-.06,0-.03.27-.08.22-.01-.09,0-.31-.02-.45,0,.41,0,.9-.04,1.06.03-.04.08,0,.1.29.04.77-.06.27-.07.72.05.18.03.68.12.68.01.22-.03.27-.05.36.06.4.1,1.85.18,1.4v-.1s0,.04,0,.06h0s0,0,0,0c.16,1.3.08,2.71.19,4h-.03c.07.77.11,1.71.2,2.26.01.23-.03.54-.07.45.05.59.09.65.08,1.51-.08-.59-.04.21-.07-.61.01.77-.03.94.1,1.76-.09-.28-.07.58-.03.94l.03-.54c.03.41.04.77.05,1.13l-.11-.19c-.05,1.57.35,2.82.2,4.02.09.41,0-.85.11-.49.02.72-.09,1.48-.08,1.71,0,.99.2.91.21,1.95.03-.13.12-.26.19.51,0,.36-.15.53-.21.54-.07.02-.05-.04-.01-.19.03-.13.04-.2.06-.19,0-.18-.04-.51-.07-.22l.04.08c0,.16-.07.42-.19.5-.12.08-.25.07-.18.03-.15.04-.22.03-.17.06.04.02.18.03.29-.02-.58.15-1.11-.34-1.9-.8.12.09.22.2.09.13-1.17-.75-.56-.26-1.38-.73-.43-.32.23-.01-.61-.46-.48-.33-.05-.15.16-.05-.78-.38-1.37-.87-1.76-1.16l.4.23c-.24-.14-.42-.26-.61-.39l.18.21c-.22-.16-.4-.28-.38-.31-.26-.11.11.22-.38-.03-.28-.23-.93-.57-.98-.72.92.65-.05-.15.75.36-.16-.09-.34-.22-.56-.38-.03-.03.04,0,.11.04-.85-.67-.47-.18-1.4-.8.15.03-.16-.23-.31-.32.37.25.13.2-.24,0-.55-.46-.64-.43-.94-.66l.33.27c-.15-.04-.43-.26-.84-.54,0-.06.38.24.25.12-.5-.25-.95-.82-1.61-1.23-.27-.24.03-.1-.2-.31-.74-.45-.71-.62-1.44-1.14.16.22.2.24-.34-.11l1.2.9c-.28-.16-.54-.34-.81-.51.35.29.77.56.98.73-.4-.22-.36-.21-.22-.03-.42-.46-.99-.72-1.51-1.22l.13-.13c-.78-.74-1.55-1.12-2.58-2.05.1.11.21.22.32.32-.2-.06-.65-.56-1.01-.84.07-.02-.12-.22-.24-.38-.01.05-.76-.68-.93-.68l-.41-.47c-.81-.77-1.08-.72-1.84-1.5.28.18-.04-.19.51.28-.26-.25-.48-.49-.51-.46-.12-.17-.77-.64-.97-.92-.13-.09-.21-.08-.49-.36-.02-.04.02-.02.02-.02-.02.02-.48-.42-.28-.12-.68-.89-2.18-2.22-2.72-3.05-.55-.57-1.22-1.24-1.69-1.78.04.02.02-.02.11.09-.59-.79-.52-.35-1.2-1.25-.3-.5.42.42.22.12.05-.25-.89-1.02-1.29-1.67l.13.13c-.32-.48-.97-1.03-1.52-1.79,0,0,.04.03.03-.01-.47-.45-1.24-1.4-1.82-2.11.23.18.28.3.24.12-.26-.32-.03.17-.54-.46-.13-.23-.43-.74-.41-.85.15.21.29.42.45.62-.15-.37-.57-.81-.79-1.15h.07c-.68-.94-.79-.89-1.5-1.93l.04.13c-.49-.5-.27-.51-.74-1.03v-.24c-.27-.37-.95-1.29-1.4-1.97.32.35.86,1.13,1.22,1.61-.24-.38-.81-1.3-.99-1.46.11.15.25.33.33.49-.37-.42-.8-1.01-1.27-1.78.15,0-.17-.49-.49-1.09-.32-.61-.7-1.3-.78-1.63-.42-.67-.8-1.37-1.18-2.09-.35-.74-.72-1.51-1.11-2.35.12.67-.24-.48-.36-.3-.2-.38-.27-.53-.28-.57l-.47-1.22c-.08-.3.22.35.24.3-.39-.86-.09-.39-.3-.98-.01.15-.22-.26-.4-.77l.22.73c-.61-1.17-.3-1.11-.91-2.29l.22.36c-.31-.61-.98-2.31-1.32-2.9-.02-.12-.03-.29.09-.01-.52-1.54-1.43-3.34-1.66-4.6l.08.1c-.1-.29-.23-.48-.3-.86.02.01.08.1.04-.03-.06-.15-.31-.75-.4-1.14l.15.32c-.41-1.53-.82-2.3-1.17-3.59.13-.03-.13-1.25-.24-1.87l.02.02c-.39-1.81-.77-3.05-1.12-4.73-.02-.54-.15-1.43-.29-2.4-.06-.49-.13-.99-.2-1.48-.03-.25-.05-.49-.08-.72-.01-.12-.02-.23-.03-.34,0-.11-.02-.26-.01-.23,0,.03-.17.04-.03-.18.09-.12.24-.28.4-.35.15-.08.29-.08.27-.02-.04,0-.07.01-.11.02.06.02.14.02.23.04.13.01.28.02.44.03.33,0,.69,0,1.02,0l.11-.16c1.69.24,4.43-.09,5.35.12.42-.03.9-.06,1.32-.08l-.02.09c1.13.02,1.69.03,3.09.01l-.28.06c.79,0,.99-.25,1.72-.26l.22.13c1.37,0,2.77.11,4.12,0-.02.02-.06.06-.29.06.65,0,2.5.09,2.27-.09.02.12,1.42.01,2.16-.04l-.12.09c.31-.05.47-.09.67-.11.2-.01.42-.09.77.03.16.09.11.12-.09.02.26.12.34.19.45.26.09.08.24.18.3.54-.03-.08-.08-.16-.13-.23.11.27.09.39.11.52.02.12.04.21.07.4.03.45-.03,1.35-.1,1.45.05.1.11.49.09.9-.03.06-.05-.1-.06-.17-.06,1.19.1,1.77,0,2.59-.03.02-.04.07-.05.14,0-.94.01-1.7.02-1.63-.08,0-.09.76-.2.16.06.61.18,1.66.15,2.4,0,.04-.02.07-.03.1v-.08c-.02.17-.01.33,0,.47-.01.24-.02.39-.03.62-.07.09-.04.87-.04,1.26.09-.03.07.47.14,0,0,.06-.01-.07-.01-.32,0-.06,0-.12,0-.16v.03c0-.25,0-.58,0-.95.04.3.08.61.03,1.04.05.2.11.42.14.53-.12.52-.19,1.52-.26,1.66.05,1.16.03,2.74.19,3.47.02.33-.05.38-.07.5-.02-.19-.01-.42-.04-.52.04.66.01,1.96.12,2.11-.05.83-.1-.47-.09.68l-.03-.15c-.05.56-.05,1.07-.04,1.56,0,.6.39,1.13.89,1.35.25.12.55.15.79.12.25,0,.49-.02.75-.03.52,0,1.07,0,1.7.06-.17-.01-.26-.02-.29-.04,2.84.1,5.86-.1,8.67.07.8.03.88-.04,1.37-.09l.17.09.83-.11c1.18-.08,2.04.23,3.54.08l-.19-.06c.54.01,1.7-.04,1.61.04.05-.01.18-.07.39-.03l.02.05,1.32-.08c.51.02.47.07.49.11,0,.02.03.04.15.06.11.02.26.01.52.15.19.09.42.31.53.54.1.23.12.43.14.33.01-.2-.07-.51-.05-.55.08.14.13.3.15.47.07.04.15.17.22.12.03-.03.24-.33-.15-1.04-.24-.28-.58-.47-.93-.52-.11-.05-.22-.09-.34-.11.31,0,.62.1.88.27-.4-.36-.89-.29-1.12-.25-.07-.04-.19-.06-.36-.08l-.85.14c-.1-.06.38-.11-.19-.14-.4.06.38.13-.28.17-.41-.07-.29-.12-.78-.06-.07-.04.03-.06.23-.08-.43.04-1.15.02-1.37.09-.43-.08-1.46.02-1.42-.11-.14.03-.76.11-1.16.11.73-.16-1.49,0-1.3-.18-.54.15-1.94.06-2.9.15.05-.01.16-.04.24-.03-.54-.01-.69-.06-1.04-.08-.07.12-.9.15-1.36.22-.66-.12.4-.14.19-.25.03.1-1.14.1-.92.18-.5-.07-.43-.03-.69-.13-.09.15-.47.03-.89.12-.73-.07-.19-.14-.99-.1-.38-.05.33-.1.33-.1Zm-5.98-12.84h0c0,.16,0,.3,0,.39,0-.08,0-.19,0-.39Zm0-1.6c0,.19,0,.44,0,.69-.03.06-.06,0-.06-.17.02.09.04-.29.06-.53Zm-.61,3.38c-.01-.25,0-.34.02-.37,0,.12,0,.26,0,.44v.03s-.02-.05-.03-.1Z"/>
          <path class="cls-5" d="m194.13,142.2s0,.06,0,.1c0-.05.01-.1.02-.15l-.03-.09s0,.09,0,.14Z"/>
          <path class="cls-5" d="m219.04,186.36v.03s0-.05,0-.07c0,.02,0,.02,0,.04Z"/>
          <polygon class="cls-5" points="177.6 132.15 177.6 132.18 177.74 132.16 177.6 132.15"/>
          <path class="cls-5" d="m218.9,177.56s.01-.05.02-.12c0,0-.01.06-.02.12Z"/>
          <path class="cls-5" d="m218.73,173.76v-.54c0,.24,0,.4,0,.54Z"/>
          <path class="cls-5" d="m218.62,170.84s-.03-.05-.04-.06h0s.04.06.04.06Z"/>
          <path class="cls-5" d="m209.62,200.07s-.06-.04-.09-.06c-.22-.14-.07-.04.09.06Z"/>
          <path class="cls-5" d="m220.15,203.45c.02.15.04.29.06.44,0-.25-.01-.44-.06-.44Z"/>
          <polygon class="cls-5" points="197.7 190.18 197.7 190.18 197.63 190.11 197.7 190.18"/>
          <path class="cls-5" d="m220.25,204.54c0-.25,0-.45-.03-.64,0,.2,0,.44.03.64Z"/>
          <path class="cls-5" d="m218.03,158.18v-.14s-.01,0-.02-.02l.02.16Z"/>
          <path class="cls-5" d="m218.01,158.02l-.02-.16c0,.07,0,.13.02.16Z"/>
          <path class="cls-5" d="m217.95,157.54l.04.33c0-.11,0-.25-.04-.33Z"/>
          <path class="cls-5" d="m218.18,162.05l.03.04s-.02-.04-.03-.04Z"/>
          <path class="cls-5" d="m218.25,163.22c0-.28.03-.71,0-1.1l-.03-.04c.06.18-.03.87.03,1.13Z"/>
          <path class="cls-5" d="m218.11,168.14l-.02-.99c-.02.17-.06.4-.09-.05-.04,1.25.06-.26.11,1.03Z"/>
          <path class="cls-5" d="m218.21,171.2c-.04-.53-.05,0-.07-.02.05.33.06.41.07.02Z"/>
          <path class="cls-5" d="m219.32,193.25l-.08-.05c.03.41.03,0,.08.05Z"/>
          <polygon class="cls-5" points="219.93 197.45 219.96 197.05 219.88 196.87 219.93 197.45"/>
          <polygon class="cls-5" points="219.5 199.97 219.48 199.79 219.54 200.47 219.5 199.97"/>
          <path class="cls-5" d="m195.23,186.58v.16c.21.19.33.16,0-.16Z"/>
          <path class="cls-5" d="m185.19,174.19c-.06-.17-.29-.56-.48-.76.2.3.37.61.48.76Z"/>
          <polygon class="cls-5" points="173.35 132.93 173.03 132.96 173.64 132.94 173.35 132.93"/>
        </g>
      </g>
    </g>
    <g>
      <path class="cls-1" d="m323.36,42.42c-.73-1.71-1.53-3.39-2.41-4.98-2.69-4.76-5.89-8.89-9.53-11.97-1.99-1.68-4.09-3.08-6.26-4.09-2.17-1.07-4.46-1.77-6.81-2.08-.89-.09-1.8-.15-2.69-.15s-1.8.06-2.66.15c-2.38.31-4.64,1.01-6.84,2.08-2.08.95-4.03,2.23-5.86,3.82-.12.06-.24.18-.37.27-.92.79-1.8,1.62-2.66,2.53-2.6,2.69-4.92,5.93-6.9,9.53-4.83,8.61-7.67,19.46-7.67,30.42,0,19.18,8.74,33.26,21.11,38.7,2.87,1.25,4.86,3.7,5.04,6.54,1.28,19.3-.21,59.41-1.22,81.34-.4,9.13-.73,15.12-.73,15.12-.15,2.87-.15,5.34,0,7.48.15,2.84.58,5.13,1.1,6.9.21.73.46,1.41.73,1.99.09.18.18.37.27.55.18.37.37.7.58,1.01.09.15.21.27.31.43.21.27.43.52.64.73,1.41,1.47,2.96,1.86,4.31,1.86.27,0,.55,0,.79-.03.21.03.43.03.64.03h.21c.06,0,.12-.03.18-.03.24,0,.49,0,.73-.06.46-.06.92-.15,1.37-.34.12-.06.24-.12.37-.18.58-.27,1.16-.7,1.68-1.25.95-1.01,1.83-2.5,2.5-4.67.15-.46.27-.92.37-1.4.61-2.69.95-6.29.82-11.06-.03-.61-.06-1.28-.09-1.95,0,0-.92-16.77-1.65-37.08-.7-20.89-1.22-45.51-.34-59.38.21-2.84,2.2-5.28,5.07-6.54,6.35-2.78,11.73-7.85,15.45-14.72,3.57-6.51,5.65-14.63,5.65-23.98s-1.92-17.87-5.25-25.53Zm-27.7,181.85c-1.77,0-3.24-1.31-3.24-2.9s1.47-2.87,3.24-2.87,3.21,1.28,3.21,2.87-1.41,2.9-3.21,2.9Z"/>
      <path class="cls-6" d="m259.04,116.82c-5.84-5.99-.43-85.37-.43-85.37.32-5.87-.17-9.94-1.11-12.77-2.1-6.33-8.71-12.65-14.05-17.48-.88-.79-1.63-1.19-2.22-1.19-.26,0-.51.08-.69.27-.19.17-.32.45-.41.82-.08.39-.09.84-.06,1.41.28,3.6,2.76,10.01,2.97,10.52,0,.03-.09.07-.26.1-.02,0-.04,0-.06.02-2.99.77-25.04,6.7-25.75,12.72-.77,6.46,9.26,9.22,16.98,11.07.53.12,1.01.25,1.48.4.77.24,1.46.5,2.1.81.09,1.45.19,3.11.3,4.93.34,6.26.77,14.47,1.07,23.14.08,1.8.13,3.62.19,5.43.11,3.6.21,7.22.26,10.77.02,1.6.04,3.2.04,4.74.09,14.84-.51,27.43-2.7,29.66-3.81,3.92-6.99,6.7-12.23,13.38-1.3,1.67-2.39,3.57-3.1,5.79-.85,2.57-1.22,5.57-.92,9.14.23,2.49.45,5.52.68,8.9.21,2.78.39,5.79.58,8.97.62,9.96,1.28,21.5,1.9,32.1.13,2.32.26,4.59.38,6.78.66,11.02,1.26,20.24,1.73,24.33.02.25.08.5.13.74.13.5.34,1.01.6,1.46.68,1.16,1.78,2.05,3.21,2.05.36,0,.73-.07,1.15-.19,3.78-1.16,3.25-4.54,3.23-8.75-.02-4.81-.15-10.79-.36-17.08-.06-2.09-.13-4.19-.21-6.31-.19-4.73-.41-9.47-.66-13.88-.21-3.42-.36-6.98-.49-10.38-.09-2.88-.17-5.64-.23-8.09-.09-4.69-.09-8.28,0-9.47.02-.13.04-.29.06-.42.02-.2.08-.4.13-.61.06-.17.11-.32.17-.49.08-.19.17-.39.28-.56,0-.02.02-.03.04-.05,0-.02,0-.03.02-.05.02-.03.04-.07.08-.12.09-.17.21-.32.34-.47.28-.35.62-.64,1-.84.17-.1.36-.17.54-.22.21-.05.39-.08.58-.08.79,0,1.6.47,2.22,1.58.21.37.39.82.56,1.35.21.71.38,1.55.49,2.56.04.39.08.82.11,1.3.24,3.06.47,7.81.71,13.23.09,2.22.19,4.56.28,6.93.06,1.14.09,2.29.15,3.45.32,7,.53,12.4.66,16.71.08,2.39.13,4.44.15,6.23.17,9.12-.11,11.56.04,18.26,0,.5.06.98.13,1.43.04.22.08.45.13.66.09.44.23.84.36,1.21.08.2.17.37.24.56.17.35.36.67.56.96.21.29.41.54.64.77.68.67,1.47,1.04,2.24,1.04.58,0,1.15-.22,1.65-.66.08-.07.15-.15.23-.22.53-.57.96-1.38,1.26-2.51.24-.86.39-1.88.45-3.1,0-.3.02-.62.02-.96,0-2.05-.04-8.23-.11-16.2-.02-1.97-.04-4.04-.06-6.19-.04-5.62-.11-11.73-.17-17.72-.02-1.94-.04-3.85-.06-5.74-.06-4.53-.11-8.87-.17-12.74-.02-1.63-.04-3.2-.06-4.64-.02-1.25-.04-2.41-.06-3.48-.02-1.67.77-3,1.71-3.92.53-.52,1.26-.79,1.99-.79s1.48.27,2.03.81c.94.91,1.71,2.25,1.69,3.9-.3,17.7-.69,60.59-.69,66.71,0,5.27,1.75,7.44,3.61,7.44.77,0,1.54-.37,2.24-1.04.34-.34.66-.76.94-1.23.66-1.13,1.09-2.61,1.15-4.36.23-10.38-.58-10.55.83-41.19.49-10.36.81-20.46,1.28-24.9.41-4.02,1.84-5.49,3.25-5.49.19,0,.38.03.58.08.19.05.38.12.54.22.38.2.71.49,1.01.84.13.15.24.3.34.47.06.08.09.15.13.22.11.17.21.37.28.56.09.2.15.4.21.62.04.07.04.13.06.2.06.22.09.45.11.69.19,2.54-.04,16.07-.71,27.95-.73,12.35-1.2,27.33-1.26,37.27,0,4.21-.54,7.59,3.23,8.75.39.12.79.19,1.15.19,1.15,0,2.08-.57,2.76-1.4.17-.2.32-.42.45-.66.15-.22.26-.47.36-.71.11-.25.19-.5.26-.76.06-.24.11-.49.13-.74,1.3-11.32,3.57-61.72,5.24-81.08,1.63-18.96-17.88-22.28-23.76-28.3Zm-20.23-97.34c1.78,0,3.23,1.3,3.23,2.89s-1.45,2.89-3.23,2.89-3.23-1.3-3.23-2.89,1.45-2.89,3.23-2.89Z"/>
    </g>
  </g>
</svg>