<?xml version="1.0" encoding="UTF-8" standalone="no"?>
<!-- Created with Inkscape (http://www.inkscape.org/) -->

<svg
   width="28.468479mm"
   height="179.45171mm"
   viewBox="0 0 28.468479 179.45171"
   version="1.1"
   id="svg1"
   xmlns="http://www.w3.org/2000/svg"
   xmlns:svg="http://www.w3.org/2000/svg">
  <defs
     id="defs1">
    <clipPath
       id="clip-51">
      <path
         clip-rule="nonzero"
         d="m 1442,2367 h 1430 v 186 H 1442 Z m 0,0"
         id="path4339" />
    </clipPath>
    <clipPath
       id="clip-52">
      <path
         clip-rule="nonzero"
         d="m 2521.75,2371.8086 c 34.2617,29.7422 66.7695,57.9609 104.3984,90.6211 34.3321,-29.4414 69.2032,-59.3281 107.9297,-92.5313 44.6211,39.2618 89.5703,78.8204 137.543,121.0313 -16.1992,17.8594 -30.1211,33.1992 -53.6211,59.1016 -24.9297,-35.2227 -47.3906,-66.9415 -72.7695,-102.8008 -46.2422,41.8593 -80.4492,72.8281 -116.6992,105.6406 -35.3516,-33.0195 -70.1524,-65.5313 -106.7227,-99.6914 -36.4688,31.5898 -71.4688,61.9219 -106.0078,91.8398 -35.5625,-32.2187 -68.6914,-62.2304 -103.7422,-94 -38.3477,33.0196 -73.2891,63.1094 -110.0469,94.75 -34.9219,-30.0312 -68.832,-59.1797 -105.1211,-90.3906 -36.9218,32.9297 -71.4804,63.75 -108.1601,96.4609 -36.0313,-32.7304 -70.1914,-63.7617 -105.9102,-96.2109 -36.082,31.2227 -70.0312,60.6016 -107.3398,92.8828 -35.6094,-31.4414 -70.2617,-62.0312 -107.1524,-94.6015 -34.25,26.5703 -68.289,52.9882 -104.539,81.1093 -39.6875,-33.9804 -79.4493,-68.0078 -121.5391,-104.039 10.5508,-11.4922 19.3594,-21.0899 30.0117,-32.6914 31.0781,24.7109 59.9688,47.6797 90.0899,71.6328 37.1093,-32.461 72.0195,-63 108.9765,-95.3438 34.2032,31.1719 67.2617,61.3125 102.9102,93.8125 36.6836,-30.6211 72.1328,-60.2109 110.1406,-91.9297 33.8594,29.4883 67.6328,58.9102 105.4414,91.8399 34.1094,-30.9922 68.0781,-61.8594 104.2695,-94.7422 36.711,30.75 72.0196,60.3125 108.9805,91.2695 35.5899,-32.8867 69.6602,-64.3672 105.461,-97.4492 35.7187,31.6524 70.4296,62.4024 106.6601,94.5 35.5703,-30.0586 69.6875,-58.8984 106.5586,-90.0703 z m 0,0"
         id="path4340" />
    </clipPath>
    <clipPath
       id="clip-53">
      <path
         clip-rule="nonzero"
         d="m 2521.75,2371.8086 c 34.2617,29.7422 66.7695,57.9609 104.3984,90.6211 34.3321,-29.4414 69.2032,-59.3281 107.9297,-92.5313 44.6211,39.2618 89.5703,78.8204 137.543,121.0313 -16.1992,17.8594 -30.1211,33.1992 -53.6211,59.1016 -24.9297,-35.2227 -47.3906,-66.9415 -72.7695,-102.8008 -46.2422,41.8593 -80.4492,72.8281 -116.6992,105.6406 -35.3516,-33.0195 -70.1524,-65.5313 -106.7227,-99.6914 -36.4688,31.5898 -71.4688,61.9219 -106.0078,91.8398 -35.5625,-32.2187 -68.6914,-62.2304 -103.7422,-94 -38.3477,33.0196 -73.2891,63.1094 -110.0469,94.75 -34.9219,-30.0312 -68.832,-59.1797 -105.1211,-90.3906 -36.9218,32.9297 -71.4804,63.75 -108.1601,96.4609 -36.0313,-32.7304 -70.1914,-63.7617 -105.9102,-96.2109 -36.082,31.2227 -70.0312,60.6016 -107.3398,92.8828 -35.6094,-31.4414 -70.2617,-62.0312 -107.1524,-94.6015 -34.25,26.5703 -68.289,52.9882 -104.539,81.1093 -39.6875,-33.9804 -79.4493,-68.0078 -121.5391,-104.039 10.5508,-11.4922 19.3594,-21.0899 30.0117,-32.6914 31.0781,24.7109 59.9688,47.6797 90.0899,71.6328 37.1093,-32.461 72.0195,-63 108.9765,-95.3438 34.2032,31.1719 67.2617,61.3125 102.9102,93.8125 36.6836,-30.6211 72.1328,-60.2109 110.1406,-91.9297 33.8594,29.4883 67.6328,58.9102 105.4414,91.8399 34.1094,-30.9922 68.0781,-61.8594 104.2695,-94.7422 36.711,30.75 72.0196,60.3125 108.9805,91.2695 35.5899,-32.8867 69.6602,-64.3672 105.461,-97.4492 35.7187,31.6524 70.4296,62.4024 106.6601,94.5 35.5703,-30.0586 69.6875,-58.8984 106.5586,-90.0703"
         id="path4341" />
    </clipPath>
  </defs>
  <g
     id="layer1"
     transform="translate(-13.093666,-5.1366629)">
    <g
       clip-path="url(#clip-51)"
       id="g4650"
       transform="matrix(0,0.12554592,-0.15347535,0,404.89645,-175.93194)"
       style="fill:#c9a37e;fill-opacity:1">
      <g
         clip-path="url(#clip-52)"
         id="g4649"
         style="fill:#c9a37e;fill-opacity:1">
        <g
           clip-path="url(#clip-53)"
           id="g4648"
           style="fill:#c9a37e;fill-opacity:1">
          <path
             fill-rule="nonzero"
             fill="url(#linear-pattern-17)"
             d="m 1442.25,2367.3789 v 185.4922 h 1429.3711 v -185.4922 z m 0,0"
             id="path4647"
             style="fill:#c9a37e;fill-opacity:1" />
        </g>
      </g>
    </g>
  </g>
</svg>
